
      <svg xmlns="http://www.w3.org/2000/svg" version="1.1" width="2000" height="1000" style="display: block;"><polygon stroke-linejoin="round" stroke-miterlimit="1" stroke-width="1" points="2285.8409423828125,962.659912109375 1983.6696166992188,1097.8825073242188 2206.5059814453125,1104.9029541015625" style="fill:#991593;stroke:#991593;"></polygon><polygon stroke-linejoin="round" stroke-miterlimit="1" stroke-width="1" points="2140.5369873046875,947.1127624511719 1983.6696166992188,1097.8825073242188 2285.8409423828125,962.659912109375" style="fill:#ad1da7;stroke:#ad1da7;"></polygon><polygon stroke-linejoin="round" stroke-miterlimit="1" stroke-width="1" points="2140.0341796875,791.6888732910156 2140.5369873046875,947.1127624511719 2285.8409423828125,962.659912109375" style="fill:#93138d;stroke:#93138d;"></polygon><polygon stroke-linejoin="round" stroke-miterlimit="1" stroke-width="1" points="1987.1156005859375,803.85546875 2140.5369873046875,947.1127624511719 2140.0341796875,791.6888732910156" style="fill:#8d1187;stroke:#8d1187;"></polygon><polygon stroke-linejoin="round" stroke-miterlimit="1" stroke-width="1" points="2310.179443359375,664.3560333251953 1987.1156005859375,803.85546875 2140.0341796875,791.6888732910156" style="fill:#b821b2;stroke:#b821b2;"></polygon><polygon stroke-linejoin="round" stroke-miterlimit="1" stroke-width="1" points="2090.3223876953125,664.942626953125 1987.1156005859375,803.85546875 2310.179443359375,664.3560333251953" style="fill:#74076e;stroke:#74076e;"></polygon><polygon stroke-linejoin="round" stroke-miterlimit="1" stroke-width="1" points="2265.7928466796875,497.6257243156433 2090.3223876953125,664.942626953125 2310.179443359375,664.3560333251953" style="fill:#7c0a76;stroke:#7c0a76;"></polygon><polygon stroke-linejoin="round" stroke-miterlimit="1" stroke-width="1" points="2131.5892333984375,509.0364398956299 2090.3223876953125,664.942626953125 2265.7928466796875,497.6257243156433" style="fill:#94148e;stroke:#94148e;"></polygon><polygon stroke-linejoin="round" stroke-miterlimit="1" stroke-width="1" points="2278.6011962890625,354.2352752685547 2131.5892333984375,509.0364398956299 2265.7928466796875,497.6257243156433" style="fill:#890f83;stroke:#890f83;"></polygon><polygon stroke-linejoin="round" stroke-miterlimit="1" stroke-width="1" points="2127.731201171875,349.18165588378906 2131.5892333984375,509.0364398956299 2278.6011962890625,354.2352752685547" style="fill:#9d1797;stroke:#9d1797;"></polygon><polygon stroke-linejoin="round" stroke-miterlimit="1" stroke-width="1" points="2233.520751953125,208.71578979492188 2127.731201171875,349.18165588378906 2278.6011962890625,354.2352752685547" style="fill:#9c1696;stroke:#9c1696;"></polygon><polygon stroke-linejoin="round" stroke-miterlimit="1" stroke-width="1" points="2006.8529663085938,201.04995727539062 2127.731201171875,349.18165588378906 2233.520751953125,208.71578979492188" style="fill:#880f82;stroke:#880f82;"></polygon><polygon stroke-linejoin="round" stroke-miterlimit="1" stroke-width="1" points="2108.0205078125,64.239501953125 2006.8529663085938,201.04995727539062 2233.520751953125,208.71578979492188" style="fill:#870f81;stroke:#870f81;"></polygon><polygon stroke-linejoin="round" stroke-miterlimit="1" stroke-width="1" points="2136.7603759765625,60.75885009765625 2006.8529663085938,201.04995727539062 2108.0205078125,64.239501953125" style="fill:#61005b;stroke:#61005b;"></polygon><polygon stroke-linejoin="round" stroke-miterlimit="1" stroke-width="1" points="2107.6693115234375,-86.8997802734375 2136.7603759765625,60.75885009765625 2108.0205078125,64.239501953125" style="fill:#61005b;stroke:#61005b;"></polygon><polygon stroke-linejoin="round" stroke-miterlimit="1" stroke-width="1" points="2051.2530517578125,-103.02215576171875 2136.7603759765625,60.75885009765625 2107.6693115234375,-86.8997802734375" style="fill:#971591;stroke:#971591;"></polygon><polygon stroke-linejoin="round" stroke-miterlimit="1" stroke-width="1" points="2140.5369873046875,947.1127624511719 2011.8165893554688,1095.630859375 1983.6696166992188,1097.8825073242188" style="fill:#61005b;stroke:#61005b;"></polygon><polygon stroke-linejoin="round" stroke-miterlimit="1" stroke-width="1" points="1908.4049072265625,958.37890625 2011.8165893554688,1095.630859375 2140.5369873046875,947.1127624511719" style="fill:#95148f;stroke:#95148f;"></polygon><polygon stroke-linejoin="round" stroke-miterlimit="1" stroke-width="1" points="1987.1156005859375,803.85546875 1908.4049072265625,958.37890625 2140.5369873046875,947.1127624511719" style="fill:#8a1084;stroke:#8a1084;"></polygon><polygon stroke-linejoin="round" stroke-miterlimit="1" stroke-width="1" points="1985.962646484375,809.3728942871094 1908.4049072265625,958.37890625 1987.1156005859375,803.85546875" style="fill:#61005b;stroke:#61005b;"></polygon><polygon stroke-linejoin="round" stroke-miterlimit="1" stroke-width="1" points="2090.3223876953125,664.942626953125 1985.962646484375,809.3728942871094 1987.1156005859375,803.85546875" style="fill:#61005b;stroke:#61005b;"></polygon><polygon stroke-linejoin="round" stroke-miterlimit="1" stroke-width="1" points="1925.03125,635.1145477294922 1985.962646484375,809.3728942871094 2090.3223876953125,664.942626953125" style="fill:#a0189a;stroke:#a0189a;"></polygon><polygon stroke-linejoin="round" stroke-miterlimit="1" stroke-width="1" points="2131.5892333984375,509.0364398956299 1925.03125,635.1145477294922 2090.3223876953125,664.942626953125" style="fill:#a4199e;stroke:#a4199e;"></polygon><polygon stroke-linejoin="round" stroke-miterlimit="1" stroke-width="1" points="2019.997314453125,485.05738258361816 1925.03125,635.1145477294922 2131.5892333984375,509.0364398956299" style="fill:#850e7f;stroke:#850e7f;"></polygon><polygon stroke-linejoin="round" stroke-miterlimit="1" stroke-width="1" points="2127.731201171875,349.18165588378906 2019.997314453125,485.05738258361816 2131.5892333984375,509.0364398956299" style="fill:#840e7e;stroke:#840e7e;"></polygon><polygon stroke-linejoin="round" stroke-miterlimit="1" stroke-width="1" points="1782.2608032226562,339.53819274902344 2019.997314453125,485.05738258361816 2127.731201171875,349.18165588378906" style="fill:#a91ba3;stroke:#a91ba3;"></polygon><polygon stroke-linejoin="round" stroke-miterlimit="1" stroke-width="1" points="2006.8529663085938,201.04995727539062 1782.2608032226562,339.53819274902344 2127.731201171875,349.18165588378906" style="fill:#a81ba2;stroke:#a81ba2;"></polygon><polygon stroke-linejoin="round" stroke-miterlimit="1" stroke-width="1" points="1927.434326171875,210.02420043945312 1782.2608032226562,339.53819274902344 2006.8529663085938,201.04995727539062" style="fill:#d12acb;stroke:#d12acb;"></polygon><polygon stroke-linejoin="round" stroke-miterlimit="1" stroke-width="1" points="2136.7603759765625,60.75885009765625 1927.434326171875,210.02420043945312 2006.8529663085938,201.04995727539062" style="fill:#c325bd;stroke:#c325bd;"></polygon><polygon stroke-linejoin="round" stroke-miterlimit="1" stroke-width="1" points="1780.0001220703125,35.29095458984375 1927.434326171875,210.02420043945312 2136.7603759765625,60.75885009765625" style="fill:#ac1ca6;stroke:#ac1ca6;"></polygon><polygon stroke-linejoin="round" stroke-miterlimit="1" stroke-width="1" points="2051.2530517578125,-103.02215576171875 1780.0001220703125,35.29095458984375 2136.7603759765625,60.75885009765625" style="fill:#a4199e;stroke:#a4199e;"></polygon><polygon stroke-linejoin="round" stroke-miterlimit="1" stroke-width="1" points="1783.3167114257812,-85.26165771484375 1780.0001220703125,35.29095458984375 2051.2530517578125,-103.02215576171875" style="fill:#a61aa0;stroke:#a61aa0;"></polygon><polygon stroke-linejoin="round" stroke-miterlimit="1" stroke-width="1" points="1908.4049072265625,958.37890625 1819.664306640625,1085.53564453125 2011.8165893554688,1095.630859375" style="fill:#95148f;stroke:#95148f;"></polygon><polygon stroke-linejoin="round" stroke-miterlimit="1" stroke-width="1" points="1656.6957397460938,953.2595825195312 1819.664306640625,1085.53564453125 1908.4049072265625,958.37890625" style="fill:#9d1797;stroke:#9d1797;"></polygon><polygon stroke-linejoin="round" stroke-miterlimit="1" stroke-width="1" points="1985.962646484375,809.3728942871094 1656.6957397460938,953.2595825195312 1908.4049072265625,958.37890625" style="fill:#870e81;stroke:#870e81;"></polygon><polygon stroke-linejoin="round" stroke-miterlimit="1" stroke-width="1" points="1819.2652587890625,800.5000915527344 1656.6957397460938,953.2595825195312 1985.962646484375,809.3728942871094" style="fill:#c626c0;stroke:#c626c0;"></polygon><polygon stroke-linejoin="round" stroke-miterlimit="1" stroke-width="1" points="1925.03125,635.1145477294922 1819.2652587890625,800.5000915527344 1985.962646484375,809.3728942871094" style="fill:#ac1ca6;stroke:#ac1ca6;"></polygon><polygon stroke-linejoin="round" stroke-miterlimit="1" stroke-width="1" points="1869.9940185546875,664.9713134765625 1819.2652587890625,800.5000915527344 1925.03125,635.1145477294922" style="fill:#7f0c79;stroke:#7f0c79;"></polygon><polygon stroke-linejoin="round" stroke-miterlimit="1" stroke-width="1" points="2019.997314453125,485.05738258361816 1869.9940185546875,664.9713134765625 1925.03125,635.1145477294922" style="fill:#8d1187;stroke:#8d1187;"></polygon><polygon stroke-linejoin="round" stroke-miterlimit="1" stroke-width="1" points="1854.4627685546875,503.86103773117065 1869.9940185546875,664.9713134765625 2019.997314453125,485.05738258361816" style="fill:#b620b0;stroke:#b620b0;"></polygon><polygon stroke-linejoin="round" stroke-miterlimit="1" stroke-width="1" points="1782.2608032226562,339.53819274902344 1854.4627685546875,503.86103773117065 2019.997314453125,485.05738258361816" style="fill:#b821b2;stroke:#b821b2;"></polygon><polygon stroke-linejoin="round" stroke-miterlimit="1" stroke-width="1" points="1737.3197631835938,340.338623046875 1854.4627685546875,503.86103773117065 1782.2608032226562,339.53819274902344" style="fill:#62015c;stroke:#62015c;"></polygon><polygon stroke-linejoin="round" stroke-miterlimit="1" stroke-width="1" points="1927.434326171875,210.02420043945312 1737.3197631835938,340.338623046875 1782.2608032226562,339.53819274902344" style="fill:#61005b;stroke:#61005b;"></polygon><polygon stroke-linejoin="round" stroke-miterlimit="1" stroke-width="1" points="1704.5778198242188,198.7242431640625 1737.3197631835938,340.338623046875 1927.434326171875,210.02420043945312" style="fill:#a51a9f;stroke:#a51a9f;"></polygon><polygon stroke-linejoin="round" stroke-miterlimit="1" stroke-width="1" points="1780.0001220703125,35.29095458984375 1704.5778198242188,198.7242431640625 1927.434326171875,210.02420043945312" style="fill:#a2199c;stroke:#a2199c;"></polygon><polygon stroke-linejoin="round" stroke-miterlimit="1" stroke-width="1" points="1705.0227661132812,51.9754638671875 1704.5778198242188,198.7242431640625 1780.0001220703125,35.29095458984375" style="fill:#7d0b77;stroke:#7d0b77;"></polygon><polygon stroke-linejoin="round" stroke-miterlimit="1" stroke-width="1" points="1783.3167114257812,-85.26165771484375 1705.0227661132812,51.9754638671875 1780.0001220703125,35.29095458984375" style="fill:#7d0b77;stroke:#7d0b77;"></polygon><polygon stroke-linejoin="round" stroke-miterlimit="1" stroke-width="1" points="1823.5661010742188,-98.8406982421875 1705.0227661132812,51.9754638671875 1783.3167114257812,-85.26165771484375" style="fill:#61005b;stroke:#61005b;"></polygon><polygon stroke-linejoin="round" stroke-miterlimit="1" stroke-width="1" points="1656.6957397460938,953.2595825195312 1494.7530517578125,1106.9016723632812 1819.664306640625,1085.53564453125" style="fill:#9b1695;stroke:#9b1695;"></polygon><polygon stroke-linejoin="round" stroke-miterlimit="1" stroke-width="1" points="1701.3597412109375,964.4212036132812 1494.7530517578125,1106.9016723632812 1656.6957397460938,953.2595825195312" style="fill:#61005b;stroke:#61005b;"></polygon><polygon stroke-linejoin="round" stroke-miterlimit="1" stroke-width="1" points="1819.2652587890625,800.5000915527344 1701.3597412109375,964.4212036132812 1656.6957397460938,953.2595825195312" style="fill:#61005b;stroke:#61005b;"></polygon><polygon stroke-linejoin="round" stroke-miterlimit="1" stroke-width="1" points="1557.779052734375,795.6603698730469 1701.3597412109375,964.4212036132812 1819.2652587890625,800.5000915527344" style="fill:#a3199d;stroke:#a3199d;"></polygon><polygon stroke-linejoin="round" stroke-miterlimit="1" stroke-width="1" points="1869.9940185546875,664.9713134765625 1557.779052734375,795.6603698730469 1819.2652587890625,800.5000915527344" style="fill:#880f82;stroke:#880f82;"></polygon><polygon stroke-linejoin="round" stroke-miterlimit="1" stroke-width="1" points="1491.85400390625,660.79345703125 1557.779052734375,795.6603698730469 1869.9940185546875,664.9713134765625" style="fill:#b720b1;stroke:#b720b1;"></polygon><polygon stroke-linejoin="round" stroke-miterlimit="1" stroke-width="1" points="1854.4627685546875,503.86103773117065 1491.85400390625,660.79345703125 1869.9940185546875,664.9713134765625" style="fill:#b41fae;stroke:#b41fae;"></polygon><polygon stroke-linejoin="round" stroke-miterlimit="1" stroke-width="1" points="1658.8865966796875,485.7374267578125 1491.85400390625,660.79345703125 1854.4627685546875,503.86103773117065" style="fill:#af1ea9;stroke:#af1ea9;"></polygon><polygon stroke-linejoin="round" stroke-miterlimit="1" stroke-width="1" points="1737.3197631835938,340.338623046875 1658.8865966796875,485.7374267578125 1854.4627685546875,503.86103773117065" style="fill:#a91ba3;stroke:#a91ba3;"></polygon><polygon stroke-linejoin="round" stroke-miterlimit="1" stroke-width="1" points="1537.6993408203125,335.00111389160156 1658.8865966796875,485.7374267578125 1737.3197631835938,340.338623046875" style="fill:#ba21b4;stroke:#ba21b4;"></polygon><polygon stroke-linejoin="round" stroke-miterlimit="1" stroke-width="1" points="1704.5778198242188,198.7242431640625 1537.6993408203125,335.00111389160156 1737.3197631835938,340.338623046875" style="fill:#bc22b6;stroke:#bc22b6;"></polygon><polygon stroke-linejoin="round" stroke-miterlimit="1" stroke-width="1" points="1605.3441772460938,192.0352783203125 1537.6993408203125,335.00111389160156 1704.5778198242188,198.7242431640625" style="fill:#e331dd;stroke:#e331dd;"></polygon><polygon stroke-linejoin="round" stroke-miterlimit="1" stroke-width="1" points="1705.0227661132812,51.9754638671875 1605.3441772460938,192.0352783203125 1704.5778198242188,198.7242431640625" style="fill:#e030da;stroke:#e030da;"></polygon><polygon stroke-linejoin="round" stroke-miterlimit="1" stroke-width="1" points="1481.973876953125,40.413848876953125 1605.3441772460938,192.0352783203125 1705.0227661132812,51.9754638671875" style="fill:#d82dd2;stroke:#d82dd2;"></polygon><polygon stroke-linejoin="round" stroke-miterlimit="1" stroke-width="1" points="1823.5661010742188,-98.8406982421875 1481.973876953125,40.413848876953125 1705.0227661132812,51.9754638671875" style="fill:#b31fad;stroke:#b31fad;"></polygon><polygon stroke-linejoin="round" stroke-miterlimit="1" stroke-width="1" points="1698.7413330078125,-96.9749755859375 1481.973876953125,40.413848876953125 1823.5661010742188,-98.8406982421875" style="fill:#b41fae;stroke:#b41fae;"></polygon><polygon stroke-linejoin="round" stroke-miterlimit="1" stroke-width="1" points="1701.3597412109375,964.4212036132812 1496.8749389648438,1094.5267944335938 1494.7530517578125,1106.9016723632812" style="fill:#72076c;stroke:#72076c;"></polygon><polygon stroke-linejoin="round" stroke-miterlimit="1" stroke-width="1" points="1531.4902954101562,935.9231872558594 1496.8749389648438,1094.5267944335938 1701.3597412109375,964.4212036132812" style="fill:#8d1187;stroke:#8d1187;"></polygon><polygon stroke-linejoin="round" stroke-miterlimit="1" stroke-width="1" points="1557.779052734375,795.6603698730469 1531.4902954101562,935.9231872558594 1701.3597412109375,964.4212036132812" style="fill:#a71aa1;stroke:#a71aa1;"></polygon><polygon stroke-linejoin="round" stroke-miterlimit="1" stroke-width="1" points="1487.3270874023438,802.3236389160156 1531.4902954101562,935.9231872558594 1557.779052734375,795.6603698730469" style="fill:#d82dd2;stroke:#d82dd2;"></polygon><polygon stroke-linejoin="round" stroke-miterlimit="1" stroke-width="1" points="1491.85400390625,660.79345703125 1487.3270874023438,802.3236389160156 1557.779052734375,795.6603698730469" style="fill:#cd29c7;stroke:#cd29c7;"></polygon><polygon stroke-linejoin="round" stroke-miterlimit="1" stroke-width="1" points="1460.9013366699219,663.9273681640625 1487.3270874023438,802.3236389160156 1491.85400390625,660.79345703125" style="fill:#b921b3;stroke:#b921b3;"></polygon><polygon stroke-linejoin="round" stroke-miterlimit="1" stroke-width="1" points="1658.8865966796875,485.7374267578125 1460.9013366699219,663.9273681640625 1491.85400390625,660.79345703125" style="fill:#c927c3;stroke:#c927c3;"></polygon><polygon stroke-linejoin="round" stroke-miterlimit="1" stroke-width="1" points="1349.5464477539062,492.8873267173767 1460.9013366699219,663.9273681640625 1658.8865966796875,485.7374267578125" style="fill:#ce29c8;stroke:#ce29c8;"></polygon><polygon stroke-linejoin="round" stroke-miterlimit="1" stroke-width="1" points="1537.6993408203125,335.00111389160156 1349.5464477539062,492.8873267173767 1658.8865966796875,485.7374267578125" style="fill:#ce29c8;stroke:#ce29c8;"></polygon><polygon stroke-linejoin="round" stroke-miterlimit="1" stroke-width="1" points="1361.920166015625,364.77854919433594 1349.5464477539062,492.8873267173767 1537.6993408203125,335.00111389160156" style="fill:#e933e3;stroke:#e933e3;"></polygon><polygon stroke-linejoin="round" stroke-miterlimit="1" stroke-width="1" points="1605.3441772460938,192.0352783203125 1361.920166015625,364.77854919433594 1537.6993408203125,335.00111389160156" style="fill:#eb34e5;stroke:#eb34e5;"></polygon><polygon stroke-linejoin="round" stroke-miterlimit="1" stroke-width="1" points="1519.929931640625,186.20706176757812 1361.920166015625,364.77854919433594 1605.3441772460938,192.0352783203125" style="fill:#ae1da8;stroke:#ae1da8;"></polygon><polygon stroke-linejoin="round" stroke-miterlimit="1" stroke-width="1" points="1481.973876953125,40.413848876953125 1519.929931640625,186.20706176757812 1605.3441772460938,192.0352783203125" style="fill:#94138e;stroke:#94138e;"></polygon><polygon stroke-linejoin="round" stroke-miterlimit="1" stroke-width="1" points="1566.2259521484375,38.5787353515625 1519.929931640625,186.20706176757812 1481.973876953125,40.413848876953125" style="fill:#61005b;stroke:#61005b;"></polygon><polygon stroke-linejoin="round" stroke-miterlimit="1" stroke-width="1" points="1698.7413330078125,-96.9749755859375 1566.2259521484375,38.5787353515625 1481.973876953125,40.413848876953125" style="fill:#61005b;stroke:#61005b;"></polygon><polygon stroke-linejoin="round" stroke-miterlimit="1" stroke-width="1" points="1455.8899841308594,-95.95550537109375 1566.2259521484375,38.5787353515625 1698.7413330078125,-96.9749755859375" style="fill:#c124bb;stroke:#c124bb;"></polygon><polygon stroke-linejoin="round" stroke-miterlimit="1" stroke-width="1" points="1531.4902954101562,935.9231872558594 1189.7857055664062,1114.4502563476562 1496.8749389648438,1094.5267944335938" style="fill:#8f1189;stroke:#8f1189;"></polygon><polygon stroke-linejoin="round" stroke-miterlimit="1" stroke-width="1" points="1182.7805480957031,958.9278259277344 1189.7857055664062,1114.4502563476562 1531.4902954101562,935.9231872558594" style="fill:#9d1797;stroke:#9d1797;"></polygon><polygon stroke-linejoin="round" stroke-miterlimit="1" stroke-width="1" points="1487.3270874023438,802.3236389160156 1182.7805480957031,958.9278259277344 1531.4902954101562,935.9231872558594" style="fill:#ce29c8;stroke:#ce29c8;"></polygon><polygon stroke-linejoin="round" stroke-miterlimit="1" stroke-width="1" points="1275.1059875488281,813.7283325195312 1182.7805480957031,958.9278259277344 1487.3270874023438,802.3236389160156" style="fill:#971491;stroke:#971491;"></polygon><polygon stroke-linejoin="round" stroke-miterlimit="1" stroke-width="1" points="1460.9013366699219,663.9273681640625 1275.1059875488281,813.7283325195312 1487.3270874023438,802.3236389160156" style="fill:#ac1ca6;stroke:#ac1ca6;"></polygon><polygon stroke-linejoin="round" stroke-miterlimit="1" stroke-width="1" points="1197.1129760742188,660.5400695800781 1275.1059875488281,813.7283325195312 1460.9013366699219,663.9273681640625" style="fill:#d32bcd;stroke:#d32bcd;"></polygon><polygon stroke-linejoin="round" stroke-miterlimit="1" stroke-width="1" points="1349.5464477539062,492.8873267173767 1197.1129760742188,660.5400695800781 1460.9013366699219,663.9273681640625" style="fill:#dd2fd7;stroke:#dd2fd7;"></polygon><polygon stroke-linejoin="round" stroke-miterlimit="1" stroke-width="1" points="1215.375503540039,489.80318546295166 1197.1129760742188,660.5400695800781 1349.5464477539062,492.8873267173767" style="fill:#ff42ff;stroke:#ff42ff;"></polygon><polygon stroke-linejoin="round" stroke-miterlimit="1" stroke-width="1" points="1361.920166015625,364.77854919433594 1215.375503540039,489.80318546295166 1349.5464477539062,492.8873267173767" style="fill:#ff41ff;stroke:#ff41ff;"></polygon><polygon stroke-linejoin="round" stroke-miterlimit="1" stroke-width="1" points="1419.9512939453125,354.47059631347656 1215.375503540039,489.80318546295166 1361.920166015625,364.77854919433594" style="fill:#61005b;stroke:#61005b;"></polygon><polygon stroke-linejoin="round" stroke-miterlimit="1" stroke-width="1" points="1519.929931640625,186.20706176757812 1419.9512939453125,354.47059631347656 1361.920166015625,364.77854919433594" style="fill:#61005b;stroke:#61005b;"></polygon><polygon stroke-linejoin="round" stroke-miterlimit="1" stroke-width="1" points="1410.8323364257812,194.23980712890625 1419.9512939453125,354.47059631347656 1519.929931640625,186.20706176757812" style="fill:#ff3dfd;stroke:#ff3dfd;"></polygon><polygon stroke-linejoin="round" stroke-miterlimit="1" stroke-width="1" points="1566.2259521484375,38.5787353515625 1410.8323364257812,194.23980712890625 1519.929931640625,186.20706176757812" style="fill:#ea34e4;stroke:#ea34e4;"></polygon><polygon stroke-linejoin="round" stroke-miterlimit="1" stroke-width="1" points="1419.8660278320312,64.39413452148438 1410.8323364257812,194.23980712890625 1566.2259521484375,38.5787353515625" style="fill:#e833e2;stroke:#e833e2;"></polygon><polygon stroke-linejoin="round" stroke-miterlimit="1" stroke-width="1" points="1455.8899841308594,-95.95550537109375 1419.8660278320312,64.39413452148438 1566.2259521484375,38.5787353515625" style="fill:#df2fd9;stroke:#df2fd9;"></polygon><polygon stroke-linejoin="round" stroke-miterlimit="1" stroke-width="1" points="1393.4883422851562,-85.86370849609375 1419.8660278320312,64.39413452148438 1455.8899841308594,-95.95550537109375" style="fill:#c726c1;stroke:#c726c1;"></polygon><polygon stroke-linejoin="round" stroke-miterlimit="1" stroke-width="1" points="1182.7805480957031,958.9278259277344 1259.0234985351562,1114.4285278320312 1189.7857055664062,1114.4502563476562" style="fill:#61005b;stroke:#61005b;"></polygon><polygon stroke-linejoin="round" stroke-miterlimit="1" stroke-width="1" points="1207.5752868652344,964.8756103515625 1259.0234985351562,1114.4285278320312 1182.7805480957031,958.9278259277344" style="fill:#61005b;stroke:#61005b;"></polygon><polygon stroke-linejoin="round" stroke-miterlimit="1" stroke-width="1" points="1275.1059875488281,813.7283325195312 1207.5752868652344,964.8756103515625 1182.7805480957031,958.9278259277344" style="fill:#63015d;stroke:#63015d;"></polygon><polygon stroke-linejoin="round" stroke-miterlimit="1" stroke-width="1" points="1268.8202209472656,798.416748046875 1207.5752868652344,964.8756103515625 1275.1059875488281,813.7283325195312" style="fill:#b41fae;stroke:#b41fae;"></polygon><polygon stroke-linejoin="round" stroke-miterlimit="1" stroke-width="1" points="1197.1129760742188,660.5400695800781 1268.8202209472656,798.416748046875 1275.1059875488281,813.7283325195312" style="fill:#61005b;stroke:#61005b;"></polygon><polygon stroke-linejoin="round" stroke-miterlimit="1" stroke-width="1" points="1268.139892578125,653.1463775634766 1268.8202209472656,798.416748046875 1197.1129760742188,660.5400695800781" style="fill:#61005b;stroke:#61005b;"></polygon><polygon stroke-linejoin="round" stroke-miterlimit="1" stroke-width="1" points="1215.375503540039,489.80318546295166 1268.139892578125,653.1463775634766 1197.1129760742188,660.5400695800781" style="fill:#61005b;stroke:#61005b;"></polygon><polygon stroke-linejoin="round" stroke-miterlimit="1" stroke-width="1" points="1055.572769165039,511.54897117614746 1268.139892578125,653.1463775634766 1215.375503540039,489.80318546295166" style="fill:#ff47ff;stroke:#ff47ff;"></polygon><polygon stroke-linejoin="round" stroke-miterlimit="1" stroke-width="1" points="1419.9512939453125,354.47059631347656 1055.572769165039,511.54897117614746 1215.375503540039,489.80318546295166" style="fill:#ff45ff;stroke:#ff45ff;"></polygon><polygon stroke-linejoin="round" stroke-miterlimit="1" stroke-width="1" points="1266.373291015625,342.3824157714844 1055.572769165039,511.54897117614746 1419.9512939453125,354.47059631347656" style="fill:#ff5bff;stroke:#ff5bff;"></polygon><polygon stroke-linejoin="round" stroke-miterlimit="1" stroke-width="1" points="1410.8323364257812,194.23980712890625 1266.373291015625,342.3824157714844 1419.9512939453125,354.47059631347656" style="fill:#ff4bff;stroke:#ff4bff;"></polygon><polygon stroke-linejoin="round" stroke-miterlimit="1" stroke-width="1" points="1269.0526123046875,203.29754638671875 1266.373291015625,342.3824157714844 1410.8323364257812,194.23980712890625" style="fill:#ff4aff;stroke:#ff4aff;"></polygon><polygon stroke-linejoin="round" stroke-miterlimit="1" stroke-width="1" points="1419.8660278320312,64.39413452148438 1269.0526123046875,203.29754638671875 1410.8323364257812,194.23980712890625" style="fill:#fb3af5;stroke:#fb3af5;"></polygon><polygon stroke-linejoin="round" stroke-miterlimit="1" stroke-width="1" points="1248.8263549804688,64.40060424804688 1269.0526123046875,203.29754638671875 1419.8660278320312,64.39413452148438" style="fill:#ff42ff;stroke:#ff42ff;"></polygon><polygon stroke-linejoin="round" stroke-miterlimit="1" stroke-width="1" points="1393.4883422851562,-85.86370849609375 1248.8263549804688,64.40060424804688 1419.8660278320312,64.39413452148438" style="fill:#ff3cfc;stroke:#ff3cfc;"></polygon><polygon stroke-linejoin="round" stroke-miterlimit="1" stroke-width="1" points="1096.4027481079102,-114.99346923828125 1248.8263549804688,64.40060424804688 1393.4883422851562,-85.86370849609375" style="fill:#ff3fff;stroke:#ff3fff;"></polygon><polygon stroke-linejoin="round" stroke-miterlimit="1" stroke-width="1" points="1207.5752868652344,964.8756103515625 1108.117317199707,1091.4651489257812 1259.0234985351562,1114.4285278320312" style="fill:#bb22b5;stroke:#bb22b5;"></polygon><polygon stroke-linejoin="round" stroke-miterlimit="1" stroke-width="1" points="1039.7051887512207,943.1317138671875 1108.117317199707,1091.4651489257812 1207.5752868652344,964.8756103515625" style="fill:#c927c3;stroke:#c927c3;"></polygon><polygon stroke-linejoin="round" stroke-miterlimit="1" stroke-width="1" points="1268.8202209472656,798.416748046875 1039.7051887512207,943.1317138671875 1207.5752868652344,964.8756103515625" style="fill:#a1189b;stroke:#a1189b;"></polygon><polygon stroke-linejoin="round" stroke-miterlimit="1" stroke-width="1" points="1119.886459350586,792.7467956542969 1039.7051887512207,943.1317138671875 1268.8202209472656,798.416748046875" style="fill:#a2199c;stroke:#a2199c;"></polygon><polygon stroke-linejoin="round" stroke-miterlimit="1" stroke-width="1" points="1268.139892578125,653.1463775634766 1119.886459350586,792.7467956542969 1268.8202209472656,798.416748046875" style="fill:#d12acb;stroke:#d12acb;"></polygon><polygon stroke-linejoin="round" stroke-miterlimit="1" stroke-width="1" points="1117.6744995117188,641.5549468994141 1119.886459350586,792.7467956542969 1268.139892578125,653.1463775634766" style="fill:#fc3af6;stroke:#fc3af6;"></polygon><polygon stroke-linejoin="round" stroke-miterlimit="1" stroke-width="1" points="1055.572769165039,511.54897117614746 1117.6744995117188,641.5549468994141 1268.139892578125,653.1463775634766" style="fill:#f939f3;stroke:#f939f3;"></polygon><polygon stroke-linejoin="round" stroke-miterlimit="1" stroke-width="1" points="880.1291122436523,507.53555059432983 1117.6744995117188,641.5549468994141 1055.572769165039,511.54897117614746" style="fill:#ff4bff;stroke:#ff4bff;"></polygon><polygon stroke-linejoin="round" stroke-miterlimit="1" stroke-width="1" points="1266.373291015625,342.3824157714844 880.1291122436523,507.53555059432983 1055.572769165039,511.54897117614746" style="fill:#ff54ff;stroke:#ff54ff;"></polygon><polygon stroke-linejoin="round" stroke-miterlimit="1" stroke-width="1" points="1046.0331535339355,338.4776306152344 880.1291122436523,507.53555059432983 1266.373291015625,342.3824157714844" style="fill:#ff6fff;stroke:#ff6fff;"></polygon><polygon stroke-linejoin="round" stroke-miterlimit="1" stroke-width="1" points="1269.0526123046875,203.29754638671875 1046.0331535339355,338.4776306152344 1266.373291015625,342.3824157714844" style="fill:#ff70ff;stroke:#ff70ff;"></polygon><polygon stroke-linejoin="round" stroke-miterlimit="1" stroke-width="1" points="968.4464282989502,197.87994384765625 1046.0331535339355,338.4776306152344 1269.0526123046875,203.29754638671875" style="fill:#ff96ff;stroke:#ff96ff;"></polygon><polygon stroke-linejoin="round" stroke-miterlimit="1" stroke-width="1" points="1248.8263549804688,64.40060424804688 968.4464282989502,197.87994384765625 1269.0526123046875,203.29754638671875" style="fill:#ff74ff;stroke:#ff74ff;"></polygon><polygon stroke-linejoin="round" stroke-miterlimit="1" stroke-width="1" points="1049.1446571350098,36.7064208984375 968.4464282989502,197.87994384765625 1248.8263549804688,64.40060424804688" style="fill:#ff6aff;stroke:#ff6aff;"></polygon><polygon stroke-linejoin="round" stroke-miterlimit="1" stroke-width="1" points="1096.4027481079102,-114.99346923828125 1049.1446571350098,36.7064208984375 1248.8263549804688,64.40060424804688" style="fill:#ff46ff;stroke:#ff46ff;"></polygon><polygon stroke-linejoin="round" stroke-miterlimit="1" stroke-width="1" points="1064.3692092895508,-85.14971923828125 1049.1446571350098,36.7064208984375 1096.4027481079102,-114.99346923828125" style="fill:#c927c3;stroke:#c927c3;"></polygon><polygon stroke-linejoin="round" stroke-miterlimit="1" stroke-width="1" points="1039.7051887512207,943.1317138671875 734.1798706054688,1085.0740356445312 1108.117317199707,1091.4651489257812" style="fill:#be23b8;stroke:#be23b8;"></polygon><polygon stroke-linejoin="round" stroke-miterlimit="1" stroke-width="1" points="908.824592590332,935.5499572753906 734.1798706054688,1085.0740356445312 1039.7051887512207,943.1317138671875" style="fill:#6b0465;stroke:#6b0465;"></polygon><polygon stroke-linejoin="round" stroke-miterlimit="1" stroke-width="1" points="1119.886459350586,792.7467956542969 908.824592590332,935.5499572753906 1039.7051887512207,943.1317138671875" style="fill:#8a1084;stroke:#8a1084;"></polygon><polygon stroke-linejoin="round" stroke-miterlimit="1" stroke-width="1" points="811.0903167724609,803.557373046875 908.824592590332,935.5499572753906 1119.886459350586,792.7467956542969" style="fill:#d22bcc;stroke:#d22bcc;"></polygon><polygon stroke-linejoin="round" stroke-miterlimit="1" stroke-width="1" points="1117.6744995117188,641.5549468994141 811.0903167724609,803.557373046875 1119.886459350586,792.7467956542969" style="fill:#f136eb;stroke:#f136eb;"></polygon><polygon stroke-linejoin="round" stroke-miterlimit="1" stroke-width="1" points="730.6235961914062,639.5527954101562 811.0903167724609,803.557373046875 1117.6744995117188,641.5549468994141" style="fill:#ce29c8;stroke:#ce29c8;"></polygon><polygon stroke-linejoin="round" stroke-miterlimit="1" stroke-width="1" points="880.1291122436523,507.53555059432983 730.6235961914062,639.5527954101562 1117.6744995117188,641.5549468994141" style="fill:#f136eb;stroke:#f136eb;"></polygon><polygon stroke-linejoin="round" stroke-miterlimit="1" stroke-width="1" points="773.4039306640625,485.159462928772 730.6235961914062,639.5527954101562 880.1291122436523,507.53555059432983" style="fill:#f236ec;stroke:#f236ec;"></polygon><polygon stroke-linejoin="round" stroke-miterlimit="1" stroke-width="1" points="1046.0331535339355,338.4776306152344 773.4039306640625,485.159462928772 880.1291122436523,507.53555059432983" style="fill:#ff53ff;stroke:#ff53ff;"></polygon><polygon stroke-linejoin="round" stroke-miterlimit="1" stroke-width="1" points="969.1385955810547,364.4954833984375 773.4039306640625,485.159462928772 1046.0331535339355,338.4776306152344" style="fill:#ff6eff;stroke:#ff6eff;"></polygon><polygon stroke-linejoin="round" stroke-miterlimit="1" stroke-width="1" points="968.4464282989502,197.87994384765625 969.1385955810547,364.4954833984375 1046.0331535339355,338.4776306152344" style="fill:#ff8dff;stroke:#ff8dff;"></polygon><polygon stroke-linejoin="round" stroke-miterlimit="1" stroke-width="1" points="862.9981842041016,206.31289672851562 969.1385955810547,364.4954833984375 968.4464282989502,197.87994384765625" style="fill:#ff76ff;stroke:#ff76ff;"></polygon><polygon stroke-linejoin="round" stroke-miterlimit="1" stroke-width="1" points="1049.1446571350098,36.7064208984375 862.9981842041016,206.31289672851562 968.4464282989502,197.87994384765625" style="fill:#ff61ff;stroke:#ff61ff;"></polygon><polygon stroke-linejoin="round" stroke-miterlimit="1" stroke-width="1" points="731.7779846191406,41.823516845703125 862.9981842041016,206.31289672851562 1049.1446571350098,36.7064208984375" style="fill:#ff4cff;stroke:#ff4cff;"></polygon><polygon stroke-linejoin="round" stroke-miterlimit="1" stroke-width="1" points="1064.3692092895508,-85.14971923828125 731.7779846191406,41.823516845703125 1049.1446571350098,36.7064208984375" style="fill:#f036ea;stroke:#f036ea;"></polygon><polygon stroke-linejoin="round" stroke-miterlimit="1" stroke-width="1" points="739.4078979492188,-102.85369873046875 731.7779846191406,41.823516845703125 1064.3692092895508,-85.14971923828125" style="fill:#f738f1;stroke:#f738f1;"></polygon><polygon stroke-linejoin="round" stroke-miterlimit="1" stroke-width="1" points="908.824592590332,935.5499572753906 588.9615478515625,1114.6945190429688 734.1798706054688,1085.0740356445312" style="fill:#6a0464;stroke:#6a0464;"></polygon><polygon stroke-linejoin="round" stroke-miterlimit="1" stroke-width="1" points="582.8806762695312,946.2720947265625 588.9615478515625,1114.6945190429688 908.824592590332,935.5499572753906" style="fill:#9a1694;stroke:#9a1694;"></polygon><polygon stroke-linejoin="round" stroke-miterlimit="1" stroke-width="1" points="811.0903167724609,803.557373046875 582.8806762695312,946.2720947265625 908.824592590332,935.5499572753906" style="fill:#ca28c4;stroke:#ca28c4;"></polygon><polygon stroke-linejoin="round" stroke-miterlimit="1" stroke-width="1" points="788.818359375,794.1254577636719 582.8806762695312,946.2720947265625 811.0903167724609,803.557373046875" style="fill:#61005b;stroke:#61005b;"></polygon><polygon stroke-linejoin="round" stroke-miterlimit="1" stroke-width="1" points="730.6235961914062,639.5527954101562 788.818359375,794.1254577636719 811.0903167724609,803.557373046875" style="fill:#ff62ff;stroke:#ff62ff;"></polygon><polygon stroke-linejoin="round" stroke-miterlimit="1" stroke-width="1" points="580.0054931640625,635.0009918212891 788.818359375,794.1254577636719 730.6235961914062,639.5527954101562" style="fill:#c425be;stroke:#c425be;"></polygon><polygon stroke-linejoin="round" stroke-miterlimit="1" stroke-width="1" points="773.4039306640625,485.159462928772 580.0054931640625,635.0009918212891 730.6235961914062,639.5527954101562" style="fill:#de2fd8;stroke:#de2fd8;"></polygon><polygon stroke-linejoin="round" stroke-miterlimit="1" stroke-width="1" points="703.15625,488.04485988616943 580.0054931640625,635.0009918212891 773.4039306640625,485.159462928772" style="fill:#e231dc;stroke:#e231dc;"></polygon><polygon stroke-linejoin="round" stroke-miterlimit="1" stroke-width="1" points="969.1385955810547,364.4954833984375 703.15625,488.04485988616943 773.4039306640625,485.159462928772" style="fill:#ff47ff;stroke:#ff47ff;"></polygon><polygon stroke-linejoin="round" stroke-miterlimit="1" stroke-width="1" points="703.0918579101562,363.6000518798828 703.15625,488.04485988616943 969.1385955810547,364.4954833984375" style="fill:#ff45ff;stroke:#ff45ff;"></polygon><polygon stroke-linejoin="round" stroke-miterlimit="1" stroke-width="1" points="862.9981842041016,206.31289672851562 703.0918579101562,363.6000518798828 969.1385955810547,364.4954833984375" style="fill:#ff58ff;stroke:#ff58ff;"></polygon><polygon stroke-linejoin="round" stroke-miterlimit="1" stroke-width="1" points="716.5755615234375,189.96951293945312 703.0918579101562,363.6000518798828 862.9981842041016,206.31289672851562" style="fill:#ff43ff;stroke:#ff43ff;"></polygon><polygon stroke-linejoin="round" stroke-miterlimit="1" stroke-width="1" points="731.7779846191406,41.823516845703125 716.5755615234375,189.96951293945312 862.9981842041016,206.31289672851562" style="fill:#ff40ff;stroke:#ff40ff;"></polygon><polygon stroke-linejoin="round" stroke-miterlimit="1" stroke-width="1" points="637.9010925292969,40.381683349609375 716.5755615234375,189.96951293945312 731.7779846191406,41.823516845703125" style="fill:#f036ea;stroke:#f036ea;"></polygon><polygon stroke-linejoin="round" stroke-miterlimit="1" stroke-width="1" points="739.4078979492188,-102.85369873046875 637.9010925292969,40.381683349609375 731.7779846191406,41.823516845703125" style="fill:#de2fd8;stroke:#de2fd8;"></polygon><polygon stroke-linejoin="round" stroke-miterlimit="1" stroke-width="1" points="814.6299743652344,-94.93701171875 637.9010925292969,40.381683349609375 739.4078979492188,-102.85369873046875" style="fill:#61005b;stroke:#61005b;"></polygon><polygon stroke-linejoin="round" stroke-miterlimit="1" stroke-width="1" points="582.8806762695312,946.2720947265625 614.4832763671875,1089.710693359375 588.9615478515625,1114.6945190429688" style="fill:#61005b;stroke:#61005b;"></polygon><polygon stroke-linejoin="round" stroke-miterlimit="1" stroke-width="1" points="441.92822265625,954.0802307128906 614.4832763671875,1089.710693359375 582.8806762695312,946.2720947265625" style="fill:#9a1694;stroke:#9a1694;"></polygon><polygon stroke-linejoin="round" stroke-miterlimit="1" stroke-width="1" points="788.818359375,794.1254577636719 441.92822265625,954.0802307128906 582.8806762695312,946.2720947265625" style="fill:#a3199d;stroke:#a3199d;"></polygon><polygon stroke-linejoin="round" stroke-miterlimit="1" stroke-width="1" points="477.774169921875,791.7105712890625 441.92822265625,954.0802307128906 788.818359375,794.1254577636719" style="fill:#b01eaa;stroke:#b01eaa;"></polygon><polygon stroke-linejoin="round" stroke-miterlimit="1" stroke-width="1" points="580.0054931640625,635.0009918212891 477.774169921875,791.7105712890625 788.818359375,794.1254577636719" style="fill:#a2199c;stroke:#a2199c;"></polygon><polygon stroke-linejoin="round" stroke-miterlimit="1" stroke-width="1" points="432.2783203125,639.6611022949219 477.774169921875,791.7105712890625 580.0054931640625,635.0009918212891" style="fill:#95148f;stroke:#95148f;"></polygon><polygon stroke-linejoin="round" stroke-miterlimit="1" stroke-width="1" points="703.15625,488.04485988616943 432.2783203125,639.6611022949219 580.0054931640625,635.0009918212891" style="fill:#c425be;stroke:#c425be;"></polygon><polygon stroke-linejoin="round" stroke-miterlimit="1" stroke-width="1" points="570.6690368652344,489.23375129699707 432.2783203125,639.6611022949219 703.15625,488.04485988616943" style="fill:#c626c0;stroke:#c626c0;"></polygon><polygon stroke-linejoin="round" stroke-miterlimit="1" stroke-width="1" points="703.0918579101562,363.6000518798828 570.6690368652344,489.23375129699707 703.15625,488.04485988616943" style="fill:#f237ec;stroke:#f237ec;"></polygon><polygon stroke-linejoin="round" stroke-miterlimit="1" stroke-width="1" points="433.4072265625,339.44715881347656 570.6690368652344,489.23375129699707 703.0918579101562,363.6000518798828" style="fill:#d62cd0;stroke:#d62cd0;"></polygon><polygon stroke-linejoin="round" stroke-miterlimit="1" stroke-width="1" points="716.5755615234375,189.96951293945312 433.4072265625,339.44715881347656 703.0918579101562,363.6000518798828" style="fill:#df2fd9;stroke:#df2fd9;"></polygon><polygon stroke-linejoin="round" stroke-miterlimit="1" stroke-width="1" points="514.2253112792969,214.99172973632812 433.4072265625,339.44715881347656 716.5755615234375,189.96951293945312" style="fill:#e933e3;stroke:#e933e3;"></polygon><polygon stroke-linejoin="round" stroke-miterlimit="1" stroke-width="1" points="637.9010925292969,40.381683349609375 514.2253112792969,214.99172973632812 716.5755615234375,189.96951293945312" style="fill:#ec34e6;stroke:#ec34e6;"></polygon><polygon stroke-linejoin="round" stroke-miterlimit="1" stroke-width="1" points="657.1467895507812,63.946441650390625 514.2253112792969,214.99172973632812 637.9010925292969,40.381683349609375" style="fill:#61005b;stroke:#61005b;"></polygon><polygon stroke-linejoin="round" stroke-miterlimit="1" stroke-width="1" points="814.6299743652344,-94.93701171875 657.1467895507812,63.946441650390625 637.9010925292969,40.381683349609375" style="fill:#61005b;stroke:#61005b;"></polygon><polygon stroke-linejoin="round" stroke-miterlimit="1" stroke-width="1" points="433.96380615234375,-106.07562255859375 657.1467895507812,63.946441650390625 814.6299743652344,-94.93701171875" style="fill:#bf24b9;stroke:#bf24b9;"></polygon><polygon stroke-linejoin="round" stroke-miterlimit="1" stroke-width="1" points="441.92822265625,954.0802307128906 519.9843139648438,1087.50927734375 614.4832763671875,1089.710693359375" style="fill:#61005b;stroke:#61005b;"></polygon><polygon stroke-linejoin="round" stroke-miterlimit="1" stroke-width="1" points="282.05279541015625,939.4874267578125 519.9843139648438,1087.50927734375 441.92822265625,954.0802307128906" style="fill:#6c0566;stroke:#6c0566;"></polygon><polygon stroke-linejoin="round" stroke-miterlimit="1" stroke-width="1" points="477.774169921875,791.7105712890625 282.05279541015625,939.4874267578125 441.92822265625,954.0802307128906" style="fill:#a1189b;stroke:#a1189b;"></polygon><polygon stroke-linejoin="round" stroke-miterlimit="1" stroke-width="1" points="415.90606689453125,808.2532653808594 282.05279541015625,939.4874267578125 477.774169921875,791.7105712890625" style="fill:#961490;stroke:#961490;"></polygon><polygon stroke-linejoin="round" stroke-miterlimit="1" stroke-width="1" points="432.2783203125,639.6611022949219 415.90606689453125,808.2532653808594 477.774169921875,791.7105712890625" style="fill:#da2dd4;stroke:#da2dd4;"></polygon><polygon stroke-linejoin="round" stroke-miterlimit="1" stroke-width="1" points="363.5740966796875,653.9837493896484 415.90606689453125,808.2532653808594 432.2783203125,639.6611022949219" style="fill:#b31fad;stroke:#b31fad;"></polygon><polygon stroke-linejoin="round" stroke-miterlimit="1" stroke-width="1" points="570.6690368652344,489.23375129699707 363.5740966796875,653.9837493896484 432.2783203125,639.6611022949219" style="fill:#ae1da8;stroke:#ae1da8;"></polygon><polygon stroke-linejoin="round" stroke-miterlimit="1" stroke-width="1" points="413.57586669921875,495.1924018859863 363.5740966796875,653.9837493896484 570.6690368652344,489.23375129699707" style="fill:#ac1ca6;stroke:#ac1ca6;"></polygon><polygon stroke-linejoin="round" stroke-miterlimit="1" stroke-width="1" points="433.4072265625,339.44715881347656 413.57586669921875,495.1924018859863 570.6690368652344,489.23375129699707" style="fill:#b821b2;stroke:#b821b2;"></polygon><polygon stroke-linejoin="round" stroke-miterlimit="1" stroke-width="1" points="487.37127685546875,347.9243927001953 413.57586669921875,495.1924018859863 433.4072265625,339.44715881347656" style="fill:#61005b;stroke:#61005b;"></polygon><polygon stroke-linejoin="round" stroke-miterlimit="1" stroke-width="1" points="514.2253112792969,214.99172973632812 487.37127685546875,347.9243927001953 433.4072265625,339.44715881347656" style="fill:#61005b;stroke:#61005b;"></polygon><polygon stroke-linejoin="round" stroke-miterlimit="1" stroke-width="1" points="431.31976318359375,190.80685424804688 487.37127685546875,347.9243927001953 514.2253112792969,214.99172973632812" style="fill:#b620b0;stroke:#b620b0;"></polygon><polygon stroke-linejoin="round" stroke-miterlimit="1" stroke-width="1" points="657.1467895507812,63.946441650390625 431.31976318359375,190.80685424804688 514.2253112792969,214.99172973632812" style="fill:#c024ba;stroke:#c024ba;"></polygon><polygon stroke-linejoin="round" stroke-miterlimit="1" stroke-width="1" points="292.279296875,62.380279541015625 431.31976318359375,190.80685424804688 657.1467895507812,63.946441650390625" style="fill:#a71aa1;stroke:#a71aa1;"></polygon><polygon stroke-linejoin="round" stroke-miterlimit="1" stroke-width="1" points="433.96380615234375,-106.07562255859375 292.279296875,62.380279541015625 657.1467895507812,63.946441650390625" style="fill:#ac1ca6;stroke:#ac1ca6;"></polygon><polygon stroke-linejoin="round" stroke-miterlimit="1" stroke-width="1" points="296.21588134765625,-91.69891357421875 292.279296875,62.380279541015625 433.96380615234375,-106.07562255859375" style="fill:#b31fad;stroke:#b31fad;"></polygon><polygon stroke-linejoin="round" stroke-miterlimit="1" stroke-width="1" points="282.05279541015625,939.4874267578125 285.51568603515625,1085.0000610351562 519.9843139648438,1087.50927734375" style="fill:#991593;stroke:#991593;"></polygon><polygon stroke-linejoin="round" stroke-miterlimit="1" stroke-width="1" points="365.00927734375,952.1245422363281 285.51568603515625,1085.0000610351562 282.05279541015625,939.4874267578125" style="fill:#61005b;stroke:#61005b;"></polygon><polygon stroke-linejoin="round" stroke-miterlimit="1" stroke-width="1" points="415.90606689453125,808.2532653808594 365.00927734375,952.1245422363281 282.05279541015625,939.4874267578125" style="fill:#61005b;stroke:#61005b;"></polygon><polygon stroke-linejoin="round" stroke-miterlimit="1" stroke-width="1" points="222.22027587890625,802.8319702148438 365.00927734375,952.1245422363281 415.90606689453125,808.2532653808594" style="fill:#7e0b78;stroke:#7e0b78;"></polygon><polygon stroke-linejoin="round" stroke-miterlimit="1" stroke-width="1" points="363.5740966796875,653.9837493896484 222.22027587890625,802.8319702148438 415.90606689453125,808.2532653808594" style="fill:#9c1696;stroke:#9c1696;"></polygon><polygon stroke-linejoin="round" stroke-miterlimit="1" stroke-width="1" points="317.314453125,662.3062591552734 222.22027587890625,802.8319702148438 363.5740966796875,653.9837493896484" style="fill:#cc28c6;stroke:#cc28c6;"></polygon><polygon stroke-linejoin="round" stroke-miterlimit="1" stroke-width="1" points="413.57586669921875,495.1924018859863 317.314453125,662.3062591552734 363.5740966796875,653.9837493896484" style="fill:#f337ed;stroke:#f337ed;"></polygon><polygon stroke-linejoin="round" stroke-miterlimit="1" stroke-width="1" points="369.446044921875,500.964427113533 317.314453125,662.3062591552734 413.57586669921875,495.1924018859863" style="fill:#b11eab;stroke:#b11eab;"></polygon><polygon stroke-linejoin="round" stroke-miterlimit="1" stroke-width="1" points="487.37127685546875,347.9243927001953 369.446044921875,500.964427113533 413.57586669921875,495.1924018859863" style="fill:#b520af;stroke:#b520af;"></polygon><polygon stroke-linejoin="round" stroke-miterlimit="1" stroke-width="1" points="285.2816162109375,350.70228576660156 369.446044921875,500.964427113533 487.37127685546875,347.9243927001953" style="fill:#b41fae;stroke:#b41fae;"></polygon><polygon stroke-linejoin="round" stroke-miterlimit="1" stroke-width="1" points="431.31976318359375,190.80685424804688 285.2816162109375,350.70228576660156 487.37127685546875,347.9243927001953" style="fill:#b821b2;stroke:#b821b2;"></polygon><polygon stroke-linejoin="round" stroke-miterlimit="1" stroke-width="1" points="142.1568603515625,204.3541259765625 285.2816162109375,350.70228576660156 431.31976318359375,190.80685424804688" style="fill:#9b1695;stroke:#9b1695;"></polygon><polygon stroke-linejoin="round" stroke-miterlimit="1" stroke-width="1" points="292.279296875,62.380279541015625 142.1568603515625,204.3541259765625 431.31976318359375,190.80685424804688" style="fill:#991593;stroke:#991593;"></polygon><polygon stroke-linejoin="round" stroke-miterlimit="1" stroke-width="1" points="135.18939208984375,62.334381103515625 142.1568603515625,204.3541259765625 292.279296875,62.380279541015625" style="fill:#9f1899;stroke:#9f1899;"></polygon><polygon stroke-linejoin="round" stroke-miterlimit="1" stroke-width="1" points="296.21588134765625,-91.69891357421875 135.18939208984375,62.334381103515625 292.279296875,62.380279541015625" style="fill:#a81ba2;stroke:#a81ba2;"></polygon><polygon stroke-linejoin="round" stroke-miterlimit="1" stroke-width="1" points="270.94793701171875,-113.34783935546875 135.18939208984375,62.334381103515625 296.21588134765625,-91.69891357421875" style="fill:#b01eaa;stroke:#b01eaa;"></polygon><polygon stroke-linejoin="round" stroke-miterlimit="1" stroke-width="1" points="365.00927734375,952.1245422363281 15.61468505859375,1093.1978149414062 285.51568603515625,1085.0000610351562" style="fill:#961490;stroke:#961490;"></polygon><polygon stroke-linejoin="round" stroke-miterlimit="1" stroke-width="1" points="-14.74212646484375,935.4604187011719 15.61468505859375,1093.1978149414062 365.00927734375,952.1245422363281" style="fill:#90128a;stroke:#90128a;"></polygon><polygon stroke-linejoin="round" stroke-miterlimit="1" stroke-width="1" points="222.22027587890625,802.8319702148438 -14.74212646484375,935.4604187011719 365.00927734375,952.1245422363281" style="fill:#9a1694;stroke:#9a1694;"></polygon><polygon stroke-linejoin="round" stroke-miterlimit="1" stroke-width="1" points="98.45220947265625,799.2706604003906 -14.74212646484375,935.4604187011719 222.22027587890625,802.8319702148438" style="fill:#961490;stroke:#961490;"></polygon><polygon stroke-linejoin="round" stroke-miterlimit="1" stroke-width="1" points="317.314453125,662.3062591552734 98.45220947265625,799.2706604003906 222.22027587890625,802.8319702148438" style="fill:#95148f;stroke:#95148f;"></polygon><polygon stroke-linejoin="round" stroke-miterlimit="1" stroke-width="1" points="-19.7835693359375,664.1935577392578 98.45220947265625,799.2706604003906 317.314453125,662.3062591552734" style="fill:#91128b;stroke:#91128b;"></polygon><polygon stroke-linejoin="round" stroke-miterlimit="1" stroke-width="1" points="369.446044921875,500.964427113533 -19.7835693359375,664.1935577392578 317.314453125,662.3062591552734" style="fill:#a51a9f;stroke:#a51a9f;"></polygon><polygon stroke-linejoin="round" stroke-miterlimit="1" stroke-width="1" points="148.62060546875,500.7373750805855 -19.7835693359375,664.1935577392578 369.446044921875,500.964427113533" style="fill:#a1189b;stroke:#a1189b;"></polygon><polygon stroke-linejoin="round" stroke-miterlimit="1" stroke-width="1" points="285.2816162109375,350.70228576660156 148.62060546875,500.7373750805855 369.446044921875,500.964427113533" style="fill:#9d1797;stroke:#9d1797;"></polygon><polygon stroke-linejoin="round" stroke-miterlimit="1" stroke-width="1" points="-5.69378662109375,362.2158203125 148.62060546875,500.7373750805855 285.2816162109375,350.70228576660156" style="fill:#9f1899;stroke:#9f1899;"></polygon><polygon stroke-linejoin="round" stroke-miterlimit="1" stroke-width="1" points="142.1568603515625,204.3541259765625 -5.69378662109375,362.2158203125 285.2816162109375,350.70228576660156" style="fill:#a3199d;stroke:#a3199d;"></polygon><polygon stroke-linejoin="round" stroke-miterlimit="1" stroke-width="1" points="139.7987060546875,186.5030517578125 -5.69378662109375,362.2158203125 142.1568603515625,204.3541259765625" style="fill:#ff5bff;stroke:#ff5bff;"></polygon><polygon stroke-linejoin="round" stroke-miterlimit="1" stroke-width="1" points="135.18939208984375,62.334381103515625 139.7987060546875,186.5030517578125 142.1568603515625,204.3541259765625" style="fill:#ffbbff;stroke:#ffbbff;"></polygon><polygon stroke-linejoin="round" stroke-miterlimit="1" stroke-width="1" points="23.8865966796875,41.438751220703125 139.7987060546875,186.5030517578125 135.18939208984375,62.334381103515625" style="fill:#a51a9f;stroke:#a51a9f;"></polygon><polygon stroke-linejoin="round" stroke-miterlimit="1" stroke-width="1" points="270.94793701171875,-113.34783935546875 23.8865966796875,41.438751220703125 135.18939208984375,62.334381103515625" style="fill:#a91ba3;stroke:#a91ba3;"></polygon><polygon stroke-linejoin="round" stroke-miterlimit="1" stroke-width="1" points="105.91461181640625,-106.521484375 23.8865966796875,41.438751220703125 270.94793701171875,-113.34783935546875" style="fill:#95148f;stroke:#95148f;"></polygon><polygon stroke-linejoin="round" stroke-miterlimit="1" stroke-width="1" points="-14.74212646484375,935.4604187011719 58.25311279296875,1108.42822265625 15.61468505859375,1093.1978149414062" style="fill:#61005b;stroke:#61005b;"></polygon><polygon stroke-linejoin="round" stroke-miterlimit="1" stroke-width="1" points="-141.9654541015625,964.1643981933594 58.25311279296875,1108.42822265625 -14.74212646484375,935.4604187011719" style="fill:#870f81;stroke:#870f81;"></polygon><polygon stroke-linejoin="round" stroke-miterlimit="1" stroke-width="1" points="98.45220947265625,799.2706604003906 -141.9654541015625,964.1643981933594 -14.74212646484375,935.4604187011719" style="fill:#870f81;stroke:#870f81;"></polygon><polygon stroke-linejoin="round" stroke-miterlimit="1" stroke-width="1" points="-158.2041015625,790.6702880859375 -141.9654541015625,964.1643981933594 98.45220947265625,799.2706604003906" style="fill:#860e80;stroke:#860e80;"></polygon><polygon stroke-linejoin="round" stroke-miterlimit="1" stroke-width="1" points="-19.7835693359375,664.1935577392578 -158.2041015625,790.6702880859375 98.45220947265625,799.2706604003906" style="fill:#7d0b77;stroke:#7d0b77;"></polygon><polygon stroke-linejoin="round" stroke-miterlimit="1" stroke-width="1" points="-147.357666015625,637.9278411865234 -158.2041015625,790.6702880859375 -19.7835693359375,664.1935577392578" style="fill:#73076d;stroke:#73076d;"></polygon><polygon stroke-linejoin="round" stroke-miterlimit="1" stroke-width="1" points="148.62060546875,500.7373750805855 -147.357666015625,637.9278411865234 -19.7835693359375,664.1935577392578" style="fill:#90128a;stroke:#90128a;"></polygon><polygon stroke-linejoin="round" stroke-miterlimit="1" stroke-width="1" points="69.5897216796875,485.3506021499634 -147.357666015625,637.9278411865234 148.62060546875,500.7373750805855" style="fill:#9d1797;stroke:#9d1797;"></polygon><polygon stroke-linejoin="round" stroke-miterlimit="1" stroke-width="1" points="-5.69378662109375,362.2158203125 69.5897216796875,485.3506021499634 148.62060546875,500.7373750805855" style="fill:#9a1694;stroke:#9a1694;"></polygon><polygon stroke-linejoin="round" stroke-miterlimit="1" stroke-width="1" points="-69.61279296875,336.6782684326172 69.5897216796875,485.3506021499634 -5.69378662109375,362.2158203125" style="fill:#61005b;stroke:#61005b;"></polygon><polygon stroke-linejoin="round" stroke-miterlimit="1" stroke-width="1" points="139.7987060546875,186.5030517578125 -69.61279296875,336.6782684326172 -5.69378662109375,362.2158203125" style="fill:#7f0c79;stroke:#7f0c79;"></polygon><polygon stroke-linejoin="round" stroke-miterlimit="1" stroke-width="1" points="-47.423583984375,188.52691650390625 -69.61279296875,336.6782684326172 139.7987060546875,186.5030517578125" style="fill:#92138c;stroke:#92138c;"></polygon><polygon stroke-linejoin="round" stroke-miterlimit="1" stroke-width="1" points="23.8865966796875,41.438751220703125 -47.423583984375,188.52691650390625 139.7987060546875,186.5030517578125" style="fill:#90128a;stroke:#90128a;"></polygon><polygon stroke-linejoin="round" stroke-miterlimit="1" stroke-width="1" points="-58.0987548828125,43.889862060546875 -47.423583984375,188.52691650390625 23.8865966796875,41.438751220703125" style="fill:#c526bf;stroke:#c526bf;"></polygon><polygon stroke-linejoin="round" stroke-miterlimit="1" stroke-width="1" points="105.91461181640625,-106.521484375 -58.0987548828125,43.889862060546875 23.8865966796875,41.438751220703125" style="fill:#d02aca;stroke:#d02aca;"></polygon><polygon stroke-linejoin="round" stroke-miterlimit="1" stroke-width="1" points="-168.290771484375,-90.7857666015625 -58.0987548828125,43.889862060546875 105.91461181640625,-106.521484375" style="fill:#7e0b78;stroke:#7e0b78;"></polygon><polygon stroke-linejoin="round" stroke-miterlimit="1" stroke-width="1" points="-141.9654541015625,964.1643981933594 -141.2197265625,1114.9542236328125 58.25311279296875,1108.42822265625" style="fill:#981592;stroke:#981592;"></polygon><polygon stroke-linejoin="round" stroke-miterlimit="1" stroke-width="1" points="-317.5408935546875,964.5218505859375 -141.2197265625,1114.9542236328125 -141.9654541015625,964.1643981933594" style="fill:#a2199c;stroke:#a2199c;"></polygon><polygon stroke-linejoin="round" stroke-miterlimit="1" stroke-width="1" points="-158.2041015625,790.6702880859375 -317.5408935546875,964.5218505859375 -141.9654541015625,964.1643981933594" style="fill:#9f1899;stroke:#9f1899;"></polygon><polygon stroke-linejoin="round" stroke-miterlimit="1" stroke-width="1" points="-89.228759765625,798.3730773925781 -317.5408935546875,964.5218505859375 -158.2041015625,790.6702880859375" style="fill:#61005b;stroke:#61005b;"></polygon><polygon stroke-linejoin="round" stroke-miterlimit="1" stroke-width="1" points="-147.357666015625,637.9278411865234 -89.228759765625,798.3730773925781 -158.2041015625,790.6702880859375" style="fill:#61005b;stroke:#61005b;"></polygon><polygon stroke-linejoin="round" stroke-miterlimit="1" stroke-width="1" points="-223.954833984375,660.7004089355469 -89.228759765625,798.3730773925781 -147.357666015625,637.9278411865234" style="fill:#8c1186;stroke:#8c1186;"></polygon><polygon stroke-linejoin="round" stroke-miterlimit="1" stroke-width="1" points="69.5897216796875,485.3506021499634 -223.954833984375,660.7004089355469 -147.357666015625,637.9278411865234" style="fill:#8f1289;stroke:#8f1289;"></polygon><polygon stroke-linejoin="round" stroke-miterlimit="1" stroke-width="1" points="-80.1116943359375,499.543897151947 -223.954833984375,660.7004089355469 69.5897216796875,485.3506021499634" style="fill:#a3199d;stroke:#a3199d;"></polygon><polygon stroke-linejoin="round" stroke-miterlimit="1" stroke-width="1" points="-69.61279296875,336.6782684326172 -80.1116943359375,499.543897151947 69.5897216796875,485.3506021499634" style="fill:#ae1da8;stroke:#ae1da8;"></polygon><polygon stroke-linejoin="round" stroke-miterlimit="1" stroke-width="1" points="-175.09033203125,339.1530456542969 -80.1116943359375,499.543897151947 -69.61279296875,336.6782684326172" style="fill:#7a0a74;stroke:#7a0a74;"></polygon><polygon stroke-linejoin="round" stroke-miterlimit="1" stroke-width="1" points="-47.423583984375,188.52691650390625 -175.09033203125,339.1530456542969 -69.61279296875,336.6782684326172" style="fill:#7a0a74;stroke:#7a0a74;"></polygon><polygon stroke-linejoin="round" stroke-miterlimit="1" stroke-width="1" points="-150.579833984375,205.0040283203125 -175.09033203125,339.1530456542969 -47.423583984375,188.52691650390625" style="fill:#9e1798;stroke:#9e1798;"></polygon><polygon stroke-linejoin="round" stroke-miterlimit="1" stroke-width="1" points="-58.0987548828125,43.889862060546875 -150.579833984375,205.0040283203125 -47.423583984375,188.52691650390625" style="fill:#9a1694;stroke:#9a1694;"></polygon><polygon stroke-linejoin="round" stroke-miterlimit="1" stroke-width="1" points="-82.462890625,64.99862670898438 -150.579833984375,205.0040283203125 -58.0987548828125,43.889862060546875" style="fill:#61005b;stroke:#61005b;"></polygon><polygon stroke-linejoin="round" stroke-miterlimit="1" stroke-width="1" points="-168.290771484375,-90.7857666015625 -82.462890625,64.99862670898438 -58.0987548828125,43.889862060546875" style="fill:#61005b;stroke:#61005b;"></polygon><polygon stroke-linejoin="round" stroke-miterlimit="1" stroke-width="1" points="-314.97998046875,-93.8763427734375 -82.462890625,64.99862670898438 -168.290771484375,-90.7857666015625" style="fill:#8a1084;stroke:#8a1084;"></polygon></svg>