
      <svg xmlns="http://www.w3.org/2000/svg" version="1.1" width="2000" height="1000" style="display: block;"><polygon stroke-linejoin="round" stroke-miterlimit="1" stroke-width="1" points="2314.6270751953125,935.0168151855469 1934.72705078125,1085.0059204101562 2274.5858154296875,1104.440673828125" style="fill:#9d2445;stroke:#9d2445;"></polygon><polygon stroke-linejoin="round" stroke-miterlimit="1" stroke-width="1" points="1945.2896118164062,961.8656005859375 1934.72705078125,1085.0059204101562 2314.6270751953125,935.0168151855469" style="fill:#660645;stroke:#660645;"></polygon><polygon stroke-linejoin="round" stroke-miterlimit="1" stroke-width="1" points="2085.5675048828125,786.823974609375 1945.2896118164062,961.8656005859375 2314.6270751953125,935.0168151855469" style="fill:#7c1245;stroke:#7c1245;"></polygon><polygon stroke-linejoin="round" stroke-miterlimit="1" stroke-width="1" points="2003.1076049804688,788.0085144042969 1945.2896118164062,961.8656005859375 2085.5675048828125,786.823974609375" style="fill:#801445;stroke:#801445;"></polygon><polygon stroke-linejoin="round" stroke-miterlimit="1" stroke-width="1" points="2083.3699951171875,664.4120025634766 2003.1076049804688,788.0085144042969 2085.5675048828125,786.823974609375" style="fill:#851745;stroke:#851745;"></polygon><polygon stroke-linejoin="round" stroke-miterlimit="1" stroke-width="1" points="2167.892822265625,637.5819702148438 2003.1076049804688,788.0085144042969 2083.3699951171875,664.4120025634766" style="fill:#5b0045;stroke:#5b0045;"></polygon><polygon stroke-linejoin="round" stroke-miterlimit="1" stroke-width="1" points="2153.6998291015625,485.98465728759766 2167.892822265625,637.5819702148438 2083.3699951171875,664.4120025634766" style="fill:#5b0045;stroke:#5b0045;"></polygon><polygon stroke-linejoin="round" stroke-miterlimit="1" stroke-width="1" points="2137.765869140625,512.7409391403198 2167.892822265625,637.5819702148438 2153.6998291015625,485.98465728759766" style="fill:#5b0045;stroke:#5b0045;"></polygon><polygon stroke-linejoin="round" stroke-miterlimit="1" stroke-width="1" points="2319.5521240234375,336.32090759277344 2137.765869140625,512.7409391403198 2153.6998291015625,485.98465728759766" style="fill:#5b0045;stroke:#5b0045;"></polygon><polygon stroke-linejoin="round" stroke-miterlimit="1" stroke-width="1" points="2165.6484375,335.30088806152344 2137.765869140625,512.7409391403198 2319.5521240234375,336.32090759277344" style="fill:#a02545;stroke:#a02545;"></polygon><polygon stroke-linejoin="round" stroke-miterlimit="1" stroke-width="1" points="2319.986328125,213.53274536132812 2165.6484375,335.30088806152344 2319.5521240234375,336.32090759277344" style="fill:#9d2445;stroke:#9d2445;"></polygon><polygon stroke-linejoin="round" stroke-miterlimit="1" stroke-width="1" points="1943.1043701171875,211.73492431640625 2165.6484375,335.30088806152344 2319.986328125,213.53274536132812" style="fill:#881945;stroke:#881945;"></polygon><polygon stroke-linejoin="round" stroke-miterlimit="1" stroke-width="1" points="2112.6412353515625,50.177398681640625 1943.1043701171875,211.73492431640625 2319.986328125,213.53274536132812" style="fill:#871845;stroke:#871845;"></polygon><polygon stroke-linejoin="round" stroke-miterlimit="1" stroke-width="1" points="2169.9041748046875,45.815399169921875 1943.1043701171875,211.73492431640625 2112.6412353515625,50.177398681640625" style="fill:#5b0045;stroke:#5b0045;"></polygon><polygon stroke-linejoin="round" stroke-miterlimit="1" stroke-width="1" points="2203.628662109375,-85.04669189453125 2169.9041748046875,45.815399169921875 2112.6412353515625,50.177398681640625" style="fill:#5b0045;stroke:#5b0045;"></polygon><polygon stroke-linejoin="round" stroke-miterlimit="1" stroke-width="1" points="1936.7349243164062,-92.88128662109375 2169.9041748046875,45.815399169921875 2203.628662109375,-85.04669189453125" style="fill:#931e45;stroke:#931e45;"></polygon><polygon stroke-linejoin="round" stroke-miterlimit="1" stroke-width="1" points="1945.2896118164062,961.8656005859375 1831.6591796875,1092.247314453125 1934.72705078125,1085.0059204101562" style="fill:#5b0045;stroke:#5b0045;"></polygon><polygon stroke-linejoin="round" stroke-miterlimit="1" stroke-width="1" points="1785.4680786132812,953.8883361816406 1831.6591796875,1092.247314453125 1945.2896118164062,961.8656005859375" style="fill:#af2d45;stroke:#af2d45;"></polygon><polygon stroke-linejoin="round" stroke-miterlimit="1" stroke-width="1" points="2003.1076049804688,788.0085144042969 1785.4680786132812,953.8883361816406 1945.2896118164062,961.8656005859375" style="fill:#ad2c45;stroke:#ad2c45;"></polygon><polygon stroke-linejoin="round" stroke-miterlimit="1" stroke-width="1" points="1786.1622314453125,809.7837524414062 1785.4680786132812,953.8883361816406 2003.1076049804688,788.0085144042969" style="fill:#a22645;stroke:#a22645;"></polygon><polygon stroke-linejoin="round" stroke-miterlimit="1" stroke-width="1" points="2167.892822265625,637.5819702148438 1786.1622314453125,809.7837524414062 2003.1076049804688,788.0085144042969" style="fill:#b53145;stroke:#b53145;"></polygon><polygon stroke-linejoin="round" stroke-miterlimit="1" stroke-width="1" points="1838.2869262695312,650.1039733886719 1786.1622314453125,809.7837524414062 2167.892822265625,637.5819702148438" style="fill:#8d1b45;stroke:#8d1b45;"></polygon><polygon stroke-linejoin="round" stroke-miterlimit="1" stroke-width="1" points="2137.765869140625,512.7409391403198 1838.2869262695312,650.1039733886719 2167.892822265625,637.5819702148438" style="fill:#881845;stroke:#881845;"></polygon><polygon stroke-linejoin="round" stroke-miterlimit="1" stroke-width="1" points="1796.54052734375,489.3745307922363 1838.2869262695312,650.1039733886719 2137.765869140625,512.7409391403198" style="fill:#a62945;stroke:#a62945;"></polygon><polygon stroke-linejoin="round" stroke-miterlimit="1" stroke-width="1" points="2165.6484375,335.30088806152344 1796.54052734375,489.3745307922363 2137.765869140625,512.7409391403198" style="fill:#a12645;stroke:#a12645;"></polygon><polygon stroke-linejoin="round" stroke-miterlimit="1" stroke-width="1" points="1828.3485717773438,338.10499572753906 1796.54052734375,489.3745307922363 2165.6484375,335.30088806152344" style="fill:#9a2245;stroke:#9a2245;"></polygon><polygon stroke-linejoin="round" stroke-miterlimit="1" stroke-width="1" points="1943.1043701171875,211.73492431640625 1828.3485717773438,338.10499572753906 2165.6484375,335.30088806152344" style="fill:#962045;stroke:#962045;"></polygon><polygon stroke-linejoin="round" stroke-miterlimit="1" stroke-width="1" points="2005.4573364257812,185.06939697265625 1828.3485717773438,338.10499572753906 1943.1043701171875,211.73492431640625" style="fill:#5b0045;stroke:#5b0045;"></polygon><polygon stroke-linejoin="round" stroke-miterlimit="1" stroke-width="1" points="2169.9041748046875,45.815399169921875 2005.4573364257812,185.06939697265625 1943.1043701171875,211.73492431640625" style="fill:#5b0045;stroke:#5b0045;"></polygon><polygon stroke-linejoin="round" stroke-miterlimit="1" stroke-width="1" points="1789.6456298828125,52.217681884765625 2005.4573364257812,185.06939697265625 2169.9041748046875,45.815399169921875" style="fill:#982145;stroke:#982145;"></polygon><polygon stroke-linejoin="round" stroke-miterlimit="1" stroke-width="1" points="1936.7349243164062,-92.88128662109375 1789.6456298828125,52.217681884765625 2169.9041748046875,45.815399169921875" style="fill:#982145;stroke:#982145;"></polygon><polygon stroke-linejoin="round" stroke-miterlimit="1" stroke-width="1" points="1828.5520629882812,-88.08209228515625 1789.6456298828125,52.217681884765625 1936.7349243164062,-92.88128662109375" style="fill:#901d45;stroke:#901d45;"></polygon><polygon stroke-linejoin="round" stroke-miterlimit="1" stroke-width="1" points="1785.4680786132812,953.8883361816406 1815.9096069335938,1102.1964111328125 1831.6591796875,1092.247314453125" style="fill:#ba3345;stroke:#ba3345;"></polygon><polygon stroke-linejoin="round" stroke-miterlimit="1" stroke-width="1" points="1811.2405395507812,957.05712890625 1815.9096069335938,1102.1964111328125 1785.4680786132812,953.8883361816406" style="fill:#5b0045;stroke:#5b0045;"></polygon><polygon stroke-linejoin="round" stroke-miterlimit="1" stroke-width="1" points="1786.1622314453125,809.7837524414062 1811.2405395507812,957.05712890625 1785.4680786132812,953.8883361816406" style="fill:#5b0045;stroke:#5b0045;"></polygon><polygon stroke-linejoin="round" stroke-miterlimit="1" stroke-width="1" points="1869.9556274414062,787.9890441894531 1811.2405395507812,957.05712890625 1786.1622314453125,809.7837524414062" style="fill:#5b0045;stroke:#5b0045;"></polygon><polygon stroke-linejoin="round" stroke-miterlimit="1" stroke-width="1" points="1838.2869262695312,650.1039733886719 1869.9556274414062,787.9890441894531 1786.1622314453125,809.7837524414062" style="fill:#5b0045;stroke:#5b0045;"></polygon><polygon stroke-linejoin="round" stroke-miterlimit="1" stroke-width="1" points="1637.574951171875,636.9216918945312 1869.9556274414062,787.9890441894531 1838.2869262695312,650.1039733886719" style="fill:#941f45;stroke:#941f45;"></polygon><polygon stroke-linejoin="round" stroke-miterlimit="1" stroke-width="1" points="1796.54052734375,489.3745307922363 1637.574951171875,636.9216918945312 1838.2869262695312,650.1039733886719" style="fill:#a42745;stroke:#a42745;"></polygon><polygon stroke-linejoin="round" stroke-miterlimit="1" stroke-width="1" points="1638.8637084960938,499.2744007706642 1637.574951171875,636.9216918945312 1796.54052734375,489.3745307922363" style="fill:#b12e45;stroke:#b12e45;"></polygon><polygon stroke-linejoin="round" stroke-miterlimit="1" stroke-width="1" points="1828.3485717773438,338.10499572753906 1638.8637084960938,499.2744007706642 1796.54052734375,489.3745307922363" style="fill:#a62945;stroke:#a62945;"></polygon><polygon stroke-linejoin="round" stroke-miterlimit="1" stroke-width="1" points="1685.1838989257812,357.48777770996094 1638.8637084960938,499.2744007706642 1828.3485717773438,338.10499572753906" style="fill:#a12645;stroke:#a12645;"></polygon><polygon stroke-linejoin="round" stroke-miterlimit="1" stroke-width="1" points="2005.4573364257812,185.06939697265625 1685.1838989257812,357.48777770996094 1828.3485717773438,338.10499572753906" style="fill:#931e45;stroke:#931e45;"></polygon><polygon stroke-linejoin="round" stroke-miterlimit="1" stroke-width="1" points="1633.13232421875,191.995849609375 1685.1838989257812,357.48777770996094 2005.4573364257812,185.06939697265625" style="fill:#ac2c45;stroke:#ac2c45;"></polygon><polygon stroke-linejoin="round" stroke-miterlimit="1" stroke-width="1" points="1789.6456298828125,52.217681884765625 1633.13232421875,191.995849609375 2005.4573364257812,185.06939697265625" style="fill:#a62845;stroke:#a62845;"></polygon><polygon stroke-linejoin="round" stroke-miterlimit="1" stroke-width="1" points="1836.790283203125,64.71865844726562 1633.13232421875,191.995849609375 1789.6456298828125,52.217681884765625" style="fill:#5b0045;stroke:#5b0045;"></polygon><polygon stroke-linejoin="round" stroke-miterlimit="1" stroke-width="1" points="1828.5520629882812,-88.08209228515625 1836.790283203125,64.71865844726562 1789.6456298828125,52.217681884765625" style="fill:#5b0045;stroke:#5b0045;"></polygon><polygon stroke-linejoin="round" stroke-miterlimit="1" stroke-width="1" points="1834.61962890625,-114.99835205078125 1836.790283203125,64.71865844726562 1828.5520629882812,-88.08209228515625" style="fill:#5b0045;stroke:#5b0045;"></polygon><polygon stroke-linejoin="round" stroke-miterlimit="1" stroke-width="1" points="1811.2405395507812,957.05712890625 1719.1647338867188,1085.6652221679688 1815.9096069335938,1102.1964111328125" style="fill:#760f45;stroke:#760f45;"></polygon><polygon stroke-linejoin="round" stroke-miterlimit="1" stroke-width="1" points="1566.6588134765625,938.1640625 1719.1647338867188,1085.6652221679688 1811.2405395507812,957.05712890625" style="fill:#ab2b45;stroke:#ab2b45;"></polygon><polygon stroke-linejoin="round" stroke-miterlimit="1" stroke-width="1" points="1869.9556274414062,787.9890441894531 1566.6588134765625,938.1640625 1811.2405395507812,957.05712890625" style="fill:#b93345;stroke:#b93345;"></polygon><polygon stroke-linejoin="round" stroke-miterlimit="1" stroke-width="1" points="1483.5014953613281,785.0101318359375 1566.6588134765625,938.1640625 1869.9556274414062,787.9890441894531" style="fill:#901d45;stroke:#901d45;"></polygon><polygon stroke-linejoin="round" stroke-miterlimit="1" stroke-width="1" points="1637.574951171875,636.9216918945312 1483.5014953613281,785.0101318359375 1869.9556274414062,787.9890441894531" style="fill:#9a2245;stroke:#9a2245;"></polygon><polygon stroke-linejoin="round" stroke-miterlimit="1" stroke-width="1" points="1508.328369140625,659.2215728759766 1483.5014953613281,785.0101318359375 1637.574951171875,636.9216918945312" style="fill:#e04745;stroke:#e04745;"></polygon><polygon stroke-linejoin="round" stroke-miterlimit="1" stroke-width="1" points="1638.8637084960938,499.2744007706642 1508.328369140625,659.2215728759766 1637.574951171875,636.9216918945312" style="fill:#da4445;stroke:#da4445;"></polygon><polygon stroke-linejoin="round" stroke-miterlimit="1" stroke-width="1" points="1711.1876220703125,510.46241664886475 1508.328369140625,659.2215728759766 1638.8637084960938,499.2744007706642" style="fill:#5b0045;stroke:#5b0045;"></polygon><polygon stroke-linejoin="round" stroke-miterlimit="1" stroke-width="1" points="1685.1838989257812,357.48777770996094 1711.1876220703125,510.46241664886475 1638.8637084960938,499.2744007706642" style="fill:#5b0045;stroke:#5b0045;"></polygon><polygon stroke-linejoin="round" stroke-miterlimit="1" stroke-width="1" points="1582.293212890625,364.9845428466797 1711.1876220703125,510.46241664886475 1685.1838989257812,357.48777770996094" style="fill:#be3545;stroke:#be3545;"></polygon><polygon stroke-linejoin="round" stroke-miterlimit="1" stroke-width="1" points="1633.13232421875,191.995849609375 1582.293212890625,364.9845428466797 1685.1838989257812,357.48777770996094" style="fill:#c13745;stroke:#c13745;"></polygon><polygon stroke-linejoin="round" stroke-miterlimit="1" stroke-width="1" points="1480.2793884277344,191.7840576171875 1582.293212890625,364.9845428466797 1633.13232421875,191.995849609375" style="fill:#be3545;stroke:#be3545;"></polygon><polygon stroke-linejoin="round" stroke-miterlimit="1" stroke-width="1" points="1836.790283203125,64.71865844726562 1480.2793884277344,191.7840576171875 1633.13232421875,191.995849609375" style="fill:#af2d45;stroke:#af2d45;"></polygon><polygon stroke-linejoin="round" stroke-miterlimit="1" stroke-width="1" points="1515.269775390625,57.585052490234375 1480.2793884277344,191.7840576171875 1836.790283203125,64.71865844726562" style="fill:#b22f45;stroke:#b22f45;"></polygon><polygon stroke-linejoin="round" stroke-miterlimit="1" stroke-width="1" points="1834.61962890625,-114.99835205078125 1515.269775390625,57.585052490234375 1836.790283203125,64.71865844726562" style="fill:#ab2b45;stroke:#ab2b45;"></polygon><polygon stroke-linejoin="round" stroke-miterlimit="1" stroke-width="1" points="1495.1394348144531,-107.38348388671875 1515.269775390625,57.585052490234375 1834.61962890625,-114.99835205078125" style="fill:#b22f45;stroke:#b22f45;"></polygon><polygon stroke-linejoin="round" stroke-miterlimit="1" stroke-width="1" points="1566.6588134765625,938.1640625 1344.8878479003906,1092.73779296875 1719.1647338867188,1085.6652221679688" style="fill:#b22f45;stroke:#b22f45;"></polygon><polygon stroke-linejoin="round" stroke-miterlimit="1" stroke-width="1" points="1569.275146484375,959.4003295898438 1344.8878479003906,1092.73779296875 1566.6588134765625,938.1640625" style="fill:#5b0045;stroke:#5b0045;"></polygon><polygon stroke-linejoin="round" stroke-miterlimit="1" stroke-width="1" points="1483.5014953613281,785.0101318359375 1569.275146484375,959.4003295898438 1566.6588134765625,938.1640625" style="fill:#5b0045;stroke:#5b0045;"></polygon><polygon stroke-linejoin="round" stroke-miterlimit="1" stroke-width="1" points="1569.6541748046875,799.8048400878906 1569.275146484375,959.4003295898438 1483.5014953613281,785.0101318359375" style="fill:#5b0045;stroke:#5b0045;"></polygon><polygon stroke-linejoin="round" stroke-miterlimit="1" stroke-width="1" points="1508.328369140625,659.2215728759766 1569.6541748046875,799.8048400878906 1483.5014953613281,785.0101318359375" style="fill:#5b0045;stroke:#5b0045;"></polygon><polygon stroke-linejoin="round" stroke-miterlimit="1" stroke-width="1" points="1564.7088623046875,663.5168151855469 1569.6541748046875,799.8048400878906 1508.328369140625,659.2215728759766" style="fill:#5b0045;stroke:#5b0045;"></polygon><polygon stroke-linejoin="round" stroke-miterlimit="1" stroke-width="1" points="1711.1876220703125,510.46241664886475 1564.7088623046875,663.5168151855469 1508.328369140625,659.2215728759766" style="fill:#5b0045;stroke:#5b0045;"></polygon><polygon stroke-linejoin="round" stroke-miterlimit="1" stroke-width="1" points="1343.1160888671875,486.60413646698 1564.7088623046875,663.5168151855469 1711.1876220703125,510.46241664886475" style="fill:#bf3645;stroke:#bf3645;"></polygon><polygon stroke-linejoin="round" stroke-miterlimit="1" stroke-width="1" points="1582.293212890625,364.9845428466797 1343.1160888671875,486.60413646698 1711.1876220703125,510.46241664886475" style="fill:#ca3b45;stroke:#ca3b45;"></polygon><polygon stroke-linejoin="round" stroke-miterlimit="1" stroke-width="1" points="1534.8685302734375,363.14739990234375 1343.1160888671875,486.60413646698 1582.293212890625,364.9845428466797" style="fill:#cd3d45;stroke:#cd3d45;"></polygon><polygon stroke-linejoin="round" stroke-miterlimit="1" stroke-width="1" points="1480.2793884277344,191.7840576171875 1534.8685302734375,363.14739990234375 1582.293212890625,364.9845428466797" style="fill:#c33845;stroke:#c33845;"></polygon><polygon stroke-linejoin="round" stroke-miterlimit="1" stroke-width="1" points="1568.0548706054688,193.30084228515625 1534.8685302734375,363.14739990234375 1480.2793884277344,191.7840576171875" style="fill:#5b0045;stroke:#5b0045;"></polygon><polygon stroke-linejoin="round" stroke-miterlimit="1" stroke-width="1" points="1515.269775390625,57.585052490234375 1568.0548706054688,193.30084228515625 1480.2793884277344,191.7840576171875" style="fill:#5b0045;stroke:#5b0045;"></polygon><polygon stroke-linejoin="round" stroke-miterlimit="1" stroke-width="1" points="1528.5296020507812,63.108184814453125 1568.0548706054688,193.30084228515625 1515.269775390625,57.585052490234375" style="fill:#5b0045;stroke:#5b0045;"></polygon><polygon stroke-linejoin="round" stroke-miterlimit="1" stroke-width="1" points="1495.1394348144531,-107.38348388671875 1528.5296020507812,63.108184814453125 1515.269775390625,57.585052490234375" style="fill:#5b0045;stroke:#5b0045;"></polygon><polygon stroke-linejoin="round" stroke-miterlimit="1" stroke-width="1" points="1517.9496459960938,-92.85394287109375 1528.5296020507812,63.108184814453125 1495.1394348144531,-107.38348388671875" style="fill:#5b0045;stroke:#5b0045;"></polygon><polygon stroke-linejoin="round" stroke-miterlimit="1" stroke-width="1" points="1569.275146484375,959.4003295898438 1396.7435913085938,1086.95947265625 1344.8878479003906,1092.73779296875" style="fill:#5b0045;stroke:#5b0045;"></polygon><polygon stroke-linejoin="round" stroke-miterlimit="1" stroke-width="1" points="1182.16650390625,936.3336181640625 1396.7435913085938,1086.95947265625 1569.275146484375,959.4003295898438" style="fill:#a22645;stroke:#a22645;"></polygon><polygon stroke-linejoin="round" stroke-miterlimit="1" stroke-width="1" points="1569.6541748046875,799.8048400878906 1182.16650390625,936.3336181640625 1569.275146484375,959.4003295898438" style="fill:#a92a45;stroke:#a92a45;"></polygon><polygon stroke-linejoin="round" stroke-miterlimit="1" stroke-width="1" points="1414.3541259765625,787.5933227539062 1182.16650390625,936.3336181640625 1569.6541748046875,799.8048400878906" style="fill:#a52845;stroke:#a52845;"></polygon><polygon stroke-linejoin="round" stroke-miterlimit="1" stroke-width="1" points="1564.7088623046875,663.5168151855469 1414.3541259765625,787.5933227539062 1569.6541748046875,799.8048400878906" style="fill:#bc3445;stroke:#bc3445;"></polygon><polygon stroke-linejoin="round" stroke-miterlimit="1" stroke-width="1" points="1404.6551513671875,646.813232421875 1414.3541259765625,787.5933227539062 1564.7088623046875,663.5168151855469" style="fill:#ba3345;stroke:#ba3345;"></polygon><polygon stroke-linejoin="round" stroke-miterlimit="1" stroke-width="1" points="1343.1160888671875,486.60413646698 1404.6551513671875,646.813232421875 1564.7088623046875,663.5168151855469" style="fill:#c73a45;stroke:#c73a45;"></polygon><polygon stroke-linejoin="round" stroke-miterlimit="1" stroke-width="1" points="1402.531494140625,512.1116971969604 1404.6551513671875,646.813232421875 1343.1160888671875,486.60413646698" style="fill:#5b0045;stroke:#5b0045;"></polygon><polygon stroke-linejoin="round" stroke-miterlimit="1" stroke-width="1" points="1534.8685302734375,363.14739990234375 1402.531494140625,512.1116971969604 1343.1160888671875,486.60413646698" style="fill:#5b0045;stroke:#5b0045;"></polygon><polygon stroke-linejoin="round" stroke-miterlimit="1" stroke-width="1" points="1253.9633483886719,364.1758117675781 1402.531494140625,512.1116971969604 1534.8685302734375,363.14739990234375" style="fill:#d54245;stroke:#d54245;"></polygon><polygon stroke-linejoin="round" stroke-miterlimit="1" stroke-width="1" points="1568.0548706054688,193.30084228515625 1253.9633483886719,364.1758117675781 1534.8685302734375,363.14739990234375" style="fill:#c53945;stroke:#c53945;"></polygon><polygon stroke-linejoin="round" stroke-miterlimit="1" stroke-width="1" points="1184.4039459228516,189.67929077148438 1253.9633483886719,364.1758117675781 1568.0548706054688,193.30084228515625" style="fill:#f45245;stroke:#f45245;"></polygon><polygon stroke-linejoin="round" stroke-miterlimit="1" stroke-width="1" points="1528.5296020507812,63.108184814453125 1184.4039459228516,189.67929077148438 1568.0548706054688,193.30084228515625" style="fill:#cd3d45;stroke:#cd3d45;"></polygon><polygon stroke-linejoin="round" stroke-miterlimit="1" stroke-width="1" points="1289.9120788574219,64.95370483398438 1184.4039459228516,189.67929077148438 1528.5296020507812,63.108184814453125" style="fill:#d84345;stroke:#d84345;"></polygon><polygon stroke-linejoin="round" stroke-miterlimit="1" stroke-width="1" points="1517.9496459960938,-92.85394287109375 1289.9120788574219,64.95370483398438 1528.5296020507812,63.108184814453125" style="fill:#cd3d45;stroke:#cd3d45;"></polygon><polygon stroke-linejoin="round" stroke-miterlimit="1" stroke-width="1" points="1418.1842041015625,-91.84381103515625 1289.9120788574219,64.95370483398438 1517.9496459960938,-92.85394287109375" style="fill:#c93b45;stroke:#c93b45;"></polygon><polygon stroke-linejoin="round" stroke-miterlimit="1" stroke-width="1" points="1182.16650390625,936.3336181640625 1222.348388671875,1099.4450073242188 1396.7435913085938,1086.95947265625" style="fill:#891945;stroke:#891945;"></polygon><polygon stroke-linejoin="round" stroke-miterlimit="1" stroke-width="1" points="1189.9100341796875,963.4801025390625 1222.348388671875,1099.4450073242188 1182.16650390625,936.3336181640625" style="fill:#6d0a45;stroke:#6d0a45;"></polygon><polygon stroke-linejoin="round" stroke-miterlimit="1" stroke-width="1" points="1414.3541259765625,787.5933227539062 1189.9100341796875,963.4801025390625 1182.16650390625,936.3336181640625" style="fill:#5b0045;stroke:#5b0045;"></polygon><polygon stroke-linejoin="round" stroke-miterlimit="1" stroke-width="1" points="1078.9927368164062,799.6834411621094 1189.9100341796875,963.4801025390625 1414.3541259765625,787.5933227539062" style="fill:#ca3c45;stroke:#ca3c45;"></polygon><polygon stroke-linejoin="round" stroke-miterlimit="1" stroke-width="1" points="1404.6551513671875,646.813232421875 1078.9927368164062,799.6834411621094 1414.3541259765625,787.5933227539062" style="fill:#e04845;stroke:#e04845;"></polygon><polygon stroke-linejoin="round" stroke-miterlimit="1" stroke-width="1" points="1149.1320037841797,636.2259216308594 1078.9927368164062,799.6834411621094 1404.6551513671875,646.813232421875" style="fill:#d44145;stroke:#d44145;"></polygon><polygon stroke-linejoin="round" stroke-miterlimit="1" stroke-width="1" points="1402.531494140625,512.1116971969604 1149.1320037841797,636.2259216308594 1404.6551513671875,646.813232421875" style="fill:#e04745;stroke:#e04745;"></polygon><polygon stroke-linejoin="round" stroke-miterlimit="1" stroke-width="1" points="1265.5882568359375,485.1278018951416 1149.1320037841797,636.2259216308594 1402.531494140625,512.1116971969604" style="fill:#ec4e45;stroke:#ec4e45;"></polygon><polygon stroke-linejoin="round" stroke-miterlimit="1" stroke-width="1" points="1253.9633483886719,364.1758117675781 1265.5882568359375,485.1278018951416 1402.531494140625,512.1116971969604" style="fill:#f75445;stroke:#f75445;"></polygon><polygon stroke-linejoin="round" stroke-miterlimit="1" stroke-width="1" points="1262.5869750976562,363.75616455078125 1265.5882568359375,485.1278018951416 1253.9633483886719,364.1758117675781" style="fill:#ff6645;stroke:#ff6645;"></polygon><polygon stroke-linejoin="round" stroke-miterlimit="1" stroke-width="1" points="1184.4039459228516,189.67929077148438 1262.5869750976562,363.75616455078125 1253.9633483886719,364.1758117675781" style="fill:#ff6445;stroke:#ff6445;"></polygon><polygon stroke-linejoin="round" stroke-miterlimit="1" stroke-width="1" points="1092.3387756347656,185.46527099609375 1262.5869750976562,363.75616455078125 1184.4039459228516,189.67929077148438" style="fill:#ff7e45;stroke:#ff7e45;"></polygon><polygon stroke-linejoin="round" stroke-miterlimit="1" stroke-width="1" points="1289.9120788574219,64.95370483398438 1092.3387756347656,185.46527099609375 1184.4039459228516,189.67929077148438" style="fill:#ff5c45;stroke:#ff5c45;"></polygon><polygon stroke-linejoin="round" stroke-miterlimit="1" stroke-width="1" points="1030.1124954223633,41.269775390625 1092.3387756347656,185.46527099609375 1289.9120788574219,64.95370483398438" style="fill:#ff5845;stroke:#ff5845;"></polygon><polygon stroke-linejoin="round" stroke-miterlimit="1" stroke-width="1" points="1418.1842041015625,-91.84381103515625 1030.1124954223633,41.269775390625 1289.9120788574219,64.95370483398438" style="fill:#e74b45;stroke:#e74b45;"></polygon><polygon stroke-linejoin="round" stroke-miterlimit="1" stroke-width="1" points="1269.4232177734375,-114.56048583984375 1030.1124954223633,41.269775390625 1418.1842041015625,-91.84381103515625" style="fill:#d84345;stroke:#d84345;"></polygon><polygon stroke-linejoin="round" stroke-miterlimit="1" stroke-width="1" points="1189.9100341796875,963.4801025390625 1004.5698528289795,1085.3888549804688 1222.348388671875,1099.4450073242188" style="fill:#8f1c45;stroke:#8f1c45;"></polygon><polygon stroke-linejoin="round" stroke-miterlimit="1" stroke-width="1" points="1013.6196308135986,964.02978515625 1004.5698528289795,1085.3888549804688 1189.9100341796875,963.4801025390625" style="fill:#aa2b45;stroke:#aa2b45;"></polygon><polygon stroke-linejoin="round" stroke-miterlimit="1" stroke-width="1" points="1078.9927368164062,799.6834411621094 1013.6196308135986,964.02978515625 1189.9100341796875,963.4801025390625" style="fill:#cf3e45;stroke:#cf3e45;"></polygon><polygon stroke-linejoin="round" stroke-miterlimit="1" stroke-width="1" points="905.7092132568359,785.16943359375 1013.6196308135986,964.02978515625 1078.9927368164062,799.6834411621094" style="fill:#e04845;stroke:#e04845;"></polygon><polygon stroke-linejoin="round" stroke-miterlimit="1" stroke-width="1" points="1149.1320037841797,636.2259216308594 905.7092132568359,785.16943359375 1078.9927368164062,799.6834411621094" style="fill:#d44145;stroke:#d44145;"></polygon><polygon stroke-linejoin="round" stroke-miterlimit="1" stroke-width="1" points="993.3533911705017,664.6241912841797 905.7092132568359,785.16943359375 1149.1320037841797,636.2259216308594" style="fill:#b02e45;stroke:#b02e45;"></polygon><polygon stroke-linejoin="round" stroke-miterlimit="1" stroke-width="1" points="1265.5882568359375,485.1278018951416 993.3533911705017,664.6241912841797 1149.1320037841797,636.2259216308594" style="fill:#ee4f45;stroke:#ee4f45;"></polygon><polygon stroke-linejoin="round" stroke-miterlimit="1" stroke-width="1" points="1112.643928527832,514.8805246353149 993.3533911705017,664.6241912841797 1265.5882568359375,485.1278018951416" style="fill:#ff8245;stroke:#ff8245;"></polygon><polygon stroke-linejoin="round" stroke-miterlimit="1" stroke-width="1" points="1262.5869750976562,363.75616455078125 1112.643928527832,514.8805246353149 1265.5882568359375,485.1278018951416" style="fill:#ff8c45;stroke:#ff8c45;"></polygon><polygon stroke-linejoin="round" stroke-miterlimit="1" stroke-width="1" points="956.9039649963379,357.6626892089844 1112.643928527832,514.8805246353149 1262.5869750976562,363.75616455078125" style="fill:#ffb745;stroke:#ffb745;"></polygon><polygon stroke-linejoin="round" stroke-miterlimit="1" stroke-width="1" points="1092.3387756347656,185.46527099609375 956.9039649963379,357.6626892089844 1262.5869750976562,363.75616455078125" style="fill:#ffab45;stroke:#ffab45;"></polygon><polygon stroke-linejoin="round" stroke-miterlimit="1" stroke-width="1" points="1107.8810348510742,185.60720825195312 956.9039649963379,357.6626892089844 1092.3387756347656,185.46527099609375" style="fill:#5b0045;stroke:#5b0045;"></polygon><polygon stroke-linejoin="round" stroke-miterlimit="1" stroke-width="1" points="1030.1124954223633,41.269775390625 1107.8810348510742,185.60720825195312 1092.3387756347656,185.46527099609375" style="fill:#5b0045;stroke:#5b0045;"></polygon><polygon stroke-linejoin="round" stroke-miterlimit="1" stroke-width="1" points="1048.0304489135742,52.0589599609375 1107.8810348510742,185.60720825195312 1030.1124954223633,41.269775390625" style="fill:#5b0045;stroke:#5b0045;"></polygon><polygon stroke-linejoin="round" stroke-miterlimit="1" stroke-width="1" points="1269.4232177734375,-114.56048583984375 1048.0304489135742,52.0589599609375 1030.1124954223633,41.269775390625" style="fill:#740e45;stroke:#740e45;"></polygon><polygon stroke-linejoin="round" stroke-miterlimit="1" stroke-width="1" points="1040.8798332214355,-92.6710205078125 1048.0304489135742,52.0589599609375 1269.4232177734375,-114.56048583984375" style="fill:#d64245;stroke:#d64245;"></polygon><polygon stroke-linejoin="round" stroke-miterlimit="1" stroke-width="1" points="1013.6196308135986,964.02978515625 952.6286163330078,1106.7388916015625 1004.5698528289795,1085.3888549804688" style="fill:#a62845;stroke:#a62845;"></polygon><polygon stroke-linejoin="round" stroke-miterlimit="1" stroke-width="1" points="760.635986328125,948.3108825683594 952.6286163330078,1106.7388916015625 1013.6196308135986,964.02978515625" style="fill:#ad2c45;stroke:#ad2c45;"></polygon><polygon stroke-linejoin="round" stroke-miterlimit="1" stroke-width="1" points="905.7092132568359,785.16943359375 760.635986328125,948.3108825683594 1013.6196308135986,964.02978515625" style="fill:#ce3e45;stroke:#ce3e45;"></polygon><polygon stroke-linejoin="round" stroke-miterlimit="1" stroke-width="1" points="731.5841979980469,814.7865295410156 760.635986328125,948.3108825683594 905.7092132568359,785.16943359375" style="fill:#d03f45;stroke:#d03f45;"></polygon><polygon stroke-linejoin="round" stroke-miterlimit="1" stroke-width="1" points="993.3533911705017,664.6241912841797 731.5841979980469,814.7865295410156 905.7092132568359,785.16943359375" style="fill:#a92a45;stroke:#a92a45;"></polygon><polygon stroke-linejoin="round" stroke-miterlimit="1" stroke-width="1" points="931.1078338623047,649.3543243408203 731.5841979980469,814.7865295410156 993.3533911705017,664.6241912841797" style="fill:#c83a45;stroke:#c83a45;"></polygon><polygon stroke-linejoin="round" stroke-miterlimit="1" stroke-width="1" points="1112.643928527832,514.8805246353149 931.1078338623047,649.3543243408203 993.3533911705017,664.6241912841797" style="fill:#ff6745;stroke:#ff6745;"></polygon><polygon stroke-linejoin="round" stroke-miterlimit="1" stroke-width="1" points="949.4787139892578,511.39405059814453 931.1078338623047,649.3543243408203 1112.643928527832,514.8805246353149" style="fill:#ff7445;stroke:#ff7445;"></polygon><polygon stroke-linejoin="round" stroke-miterlimit="1" stroke-width="1" points="956.9039649963379,357.6626892089844 949.4787139892578,511.39405059814453 1112.643928527832,514.8805246353149" style="fill:#ff9d45;stroke:#ff9d45;"></polygon><polygon stroke-linejoin="round" stroke-miterlimit="1" stroke-width="1" points="731.93603515625,337.58860778808594 949.4787139892578,511.39405059814453 956.9039649963379,357.6626892089844" style="fill:#ff9245;stroke:#ff9245;"></polygon><polygon stroke-linejoin="round" stroke-miterlimit="1" stroke-width="1" points="1107.8810348510742,185.60720825195312 731.93603515625,337.58860778808594 956.9039649963379,357.6626892089844" style="fill:#ffc745;stroke:#ffc745;"></polygon><polygon stroke-linejoin="round" stroke-miterlimit="1" stroke-width="1" points="853.3521728515625,200.58291625976562 731.93603515625,337.58860778808594 1107.8810348510742,185.60720825195312" style="fill:#ffbd45;stroke:#ffbd45;"></polygon><polygon stroke-linejoin="round" stroke-miterlimit="1" stroke-width="1" points="1048.0304489135742,52.0589599609375 853.3521728515625,200.58291625976562 1107.8810348510742,185.60720825195312" style="fill:#ff8b45;stroke:#ff8b45;"></polygon><polygon stroke-linejoin="round" stroke-miterlimit="1" stroke-width="1" points="730.3055725097656,35.23822021484375 853.3521728515625,200.58291625976562 1048.0304489135742,52.0589599609375" style="fill:#ff6c45;stroke:#ff6c45;"></polygon><polygon stroke-linejoin="round" stroke-miterlimit="1" stroke-width="1" points="1040.8798332214355,-92.6710205078125 730.3055725097656,35.23822021484375 1048.0304489135742,52.0589599609375" style="fill:#f75345;stroke:#f75345;"></polygon><polygon stroke-linejoin="round" stroke-miterlimit="1" stroke-width="1" points="785.3647766113281,-112.3092041015625 730.3055725097656,35.23822021484375 1040.8798332214355,-92.6710205078125" style="fill:#cf3e45;stroke:#cf3e45;"></polygon><polygon stroke-linejoin="round" stroke-miterlimit="1" stroke-width="1" points="760.635986328125,948.3108825683594 737.3258056640625,1100.5513305664062 952.6286163330078,1106.7388916015625" style="fill:#972045;stroke:#972045;"></polygon><polygon stroke-linejoin="round" stroke-miterlimit="1" stroke-width="1" points="661.0146484375,949.3550720214844 737.3258056640625,1100.5513305664062 760.635986328125,948.3108825683594" style="fill:#9b2345;stroke:#9b2345;"></polygon><polygon stroke-linejoin="round" stroke-miterlimit="1" stroke-width="1" points="731.5841979980469,814.7865295410156 661.0146484375,949.3550720214844 760.635986328125,948.3108825683594" style="fill:#c03745;stroke:#c03745;"></polygon><polygon stroke-linejoin="round" stroke-miterlimit="1" stroke-width="1" points="580.2402648925781,785.4094543457031 661.0146484375,949.3550720214844 731.5841979980469,814.7865295410156" style="fill:#c33845;stroke:#c33845;"></polygon><polygon stroke-linejoin="round" stroke-miterlimit="1" stroke-width="1" points="931.1078338623047,649.3543243408203 580.2402648925781,785.4094543457031 731.5841979980469,814.7865295410156" style="fill:#ad2c45;stroke:#ad2c45;"></polygon><polygon stroke-linejoin="round" stroke-miterlimit="1" stroke-width="1" points="630.4319458007812,643.4895782470703 580.2402648925781,785.4094543457031 931.1078338623047,649.3543243408203" style="fill:#ce3e45;stroke:#ce3e45;"></polygon><polygon stroke-linejoin="round" stroke-miterlimit="1" stroke-width="1" points="949.4787139892578,511.39405059814453 630.4319458007812,643.4895782470703 931.1078338623047,649.3543243408203" style="fill:#fa5545;stroke:#fa5545;"></polygon><polygon stroke-linejoin="round" stroke-miterlimit="1" stroke-width="1" points="639.4613037109375,486.3835163116455 630.4319458007812,643.4895782470703 949.4787139892578,511.39405059814453" style="fill:#e24845;stroke:#e24845;"></polygon><polygon stroke-linejoin="round" stroke-miterlimit="1" stroke-width="1" points="731.93603515625,337.58860778808594 639.4613037109375,486.3835163116455 949.4787139892578,511.39405059814453" style="fill:#ff6d45;stroke:#ff6d45;"></polygon><polygon stroke-linejoin="round" stroke-miterlimit="1" stroke-width="1" points="764.5922546386719,335.03968811035156 639.4613037109375,486.3835163116455 731.93603515625,337.58860778808594" style="fill:#5b0045;stroke:#5b0045;"></polygon><polygon stroke-linejoin="round" stroke-miterlimit="1" stroke-width="1" points="853.3521728515625,200.58291625976562 764.5922546386719,335.03968811035156 731.93603515625,337.58860778808594" style="fill:#5b0045;stroke:#5b0045;"></polygon><polygon stroke-linejoin="round" stroke-miterlimit="1" stroke-width="1" points="582.0716552734375,214.27099609375 764.5922546386719,335.03968811035156 853.3521728515625,200.58291625976562" style="fill:#ff6c45;stroke:#ff6c45;"></polygon><polygon stroke-linejoin="round" stroke-miterlimit="1" stroke-width="1" points="730.3055725097656,35.23822021484375 582.0716552734375,214.27099609375 853.3521728515625,200.58291625976562" style="fill:#ff5b45;stroke:#ff5b45;"></polygon><polygon stroke-linejoin="round" stroke-miterlimit="1" stroke-width="1" points="819.9725646972656,49.92401123046875 582.0716552734375,214.27099609375 730.3055725097656,35.23822021484375" style="fill:#5b0045;stroke:#5b0045;"></polygon><polygon stroke-linejoin="round" stroke-miterlimit="1" stroke-width="1" points="785.3647766113281,-112.3092041015625 819.9725646972656,49.92401123046875 730.3055725097656,35.23822021484375" style="fill:#5b0045;stroke:#5b0045;"></polygon><polygon stroke-linejoin="round" stroke-miterlimit="1" stroke-width="1" points="611.0689697265625,-104.50885009765625 819.9725646972656,49.92401123046875 785.3647766113281,-112.3092041015625" style="fill:#c73a45;stroke:#c73a45;"></polygon><polygon stroke-linejoin="round" stroke-miterlimit="1" stroke-width="1" points="661.0146484375,949.3550720214844 467.42352294921875,1085.8324584960938 737.3258056640625,1100.5513305664062" style="fill:#9c2345;stroke:#9c2345;"></polygon><polygon stroke-linejoin="round" stroke-miterlimit="1" stroke-width="1" points="509.6770324707031,964.3459777832031 467.42352294921875,1085.8324584960938 661.0146484375,949.3550720214844" style="fill:#9f2545;stroke:#9f2545;"></polygon><polygon stroke-linejoin="round" stroke-miterlimit="1" stroke-width="1" points="580.2402648925781,785.4094543457031 509.6770324707031,964.3459777832031 661.0146484375,949.3550720214844" style="fill:#ac2c45;stroke:#ac2c45;"></polygon><polygon stroke-linejoin="round" stroke-miterlimit="1" stroke-width="1" points="509.99603271484375,798.0174560546875 509.6770324707031,964.3459777832031 580.2402648925781,785.4094543457031" style="fill:#a42745;stroke:#a42745;"></polygon><polygon stroke-linejoin="round" stroke-miterlimit="1" stroke-width="1" points="630.4319458007812,643.4895782470703 509.99603271484375,798.0174560546875 580.2402648925781,785.4094543457031" style="fill:#b02e45;stroke:#b02e45;"></polygon><polygon stroke-linejoin="round" stroke-miterlimit="1" stroke-width="1" points="430.14459228515625,635.3646392822266 509.99603271484375,798.0174560546875 630.4319458007812,643.4895782470703" style="fill:#b83245;stroke:#b83245;"></polygon><polygon stroke-linejoin="round" stroke-miterlimit="1" stroke-width="1" points="639.4613037109375,486.3835163116455 430.14459228515625,635.3646392822266 630.4319458007812,643.4895782470703" style="fill:#c13745;stroke:#c13745;"></polygon><polygon stroke-linejoin="round" stroke-miterlimit="1" stroke-width="1" points="536.847900390625,485.2998638153076 430.14459228515625,635.3646392822266 639.4613037109375,486.3835163116455" style="fill:#b22f45;stroke:#b22f45;"></polygon><polygon stroke-linejoin="round" stroke-miterlimit="1" stroke-width="1" points="764.5922546386719,335.03968811035156 536.847900390625,485.2998638153076 639.4613037109375,486.3835163116455" style="fill:#d13f45;stroke:#d13f45;"></polygon><polygon stroke-linejoin="round" stroke-miterlimit="1" stroke-width="1" points="568.2432250976562,337.8348083496094 536.847900390625,485.2998638153076 764.5922546386719,335.03968811035156" style="fill:#e44a45;stroke:#e44a45;"></polygon><polygon stroke-linejoin="round" stroke-miterlimit="1" stroke-width="1" points="582.0716552734375,214.27099609375 568.2432250976562,337.8348083496094 764.5922546386719,335.03968811035156" style="fill:#ee4f45;stroke:#ee4f45;"></polygon><polygon stroke-linejoin="round" stroke-miterlimit="1" stroke-width="1" points="465.2760009765625,204.38436889648438 568.2432250976562,337.8348083496094 582.0716552734375,214.27099609375" style="fill:#ec4e45;stroke:#ec4e45;"></polygon><polygon stroke-linejoin="round" stroke-miterlimit="1" stroke-width="1" points="819.9725646972656,49.92401123046875 465.2760009765625,204.38436889648438 582.0716552734375,214.27099609375" style="fill:#ff5c45;stroke:#ff5c45;"></polygon><polygon stroke-linejoin="round" stroke-miterlimit="1" stroke-width="1" points="665.0034484863281,37.733123779296875 465.2760009765625,204.38436889648438 819.9725646972656,49.92401123046875" style="fill:#c23745;stroke:#c23745;"></polygon><polygon stroke-linejoin="round" stroke-miterlimit="1" stroke-width="1" points="611.0689697265625,-104.50885009765625 665.0034484863281,37.733123779296875 819.9725646972656,49.92401123046875" style="fill:#d84345;stroke:#d84345;"></polygon><polygon stroke-linejoin="round" stroke-miterlimit="1" stroke-width="1" points="459.20849609375,-112.268310546875 665.0034484863281,37.733123779296875 611.0689697265625,-104.50885009765625" style="fill:#c63a45;stroke:#c63a45;"></polygon><polygon stroke-linejoin="round" stroke-miterlimit="1" stroke-width="1" points="509.6770324707031,964.3459777832031 519.3145141601562,1113.6061401367188 467.42352294921875,1085.8324584960938" style="fill:#5b0045;stroke:#5b0045;"></polygon><polygon stroke-linejoin="round" stroke-miterlimit="1" stroke-width="1" points="318.5523681640625,964.7707824707031 519.3145141601562,1113.6061401367188 509.6770324707031,964.3459777832031" style="fill:#982145;stroke:#982145;"></polygon><polygon stroke-linejoin="round" stroke-miterlimit="1" stroke-width="1" points="509.99603271484375,798.0174560546875 318.5523681640625,964.7707824707031 509.6770324707031,964.3459777832031" style="fill:#a82a45;stroke:#a82a45;"></polygon><polygon stroke-linejoin="round" stroke-miterlimit="1" stroke-width="1" points="485.911376953125,814.9087219238281 318.5523681640625,964.7707824707031 509.99603271484375,798.0174560546875" style="fill:#7d1245;stroke:#7d1245;"></polygon><polygon stroke-linejoin="round" stroke-miterlimit="1" stroke-width="1" points="430.14459228515625,635.3646392822266 485.911376953125,814.9087219238281 509.99603271484375,798.0174560546875" style="fill:#ff7545;stroke:#ff7545;"></polygon><polygon stroke-linejoin="round" stroke-miterlimit="1" stroke-width="1" points="502.70562744140625,656.4794921875 485.911376953125,814.9087219238281 430.14459228515625,635.3646392822266" style="fill:#5b0045;stroke:#5b0045;"></polygon><polygon stroke-linejoin="round" stroke-miterlimit="1" stroke-width="1" points="536.847900390625,485.2998638153076 502.70562744140625,656.4794921875 430.14459228515625,635.3646392822266" style="fill:#5b0045;stroke:#5b0045;"></polygon><polygon stroke-linejoin="round" stroke-miterlimit="1" stroke-width="1" points="506.1905212402344,514.9701862335205 502.70562744140625,656.4794921875 536.847900390625,485.2998638153076" style="fill:#ff7545;stroke:#ff7545;"></polygon><polygon stroke-linejoin="round" stroke-miterlimit="1" stroke-width="1" points="568.2432250976562,337.8348083496094 506.1905212402344,514.9701862335205 536.847900390625,485.2998638153076" style="fill:#ff8a45;stroke:#ff8a45;"></polygon><polygon stroke-linejoin="round" stroke-miterlimit="1" stroke-width="1" points="490.4815368652344,345.9802551269531 506.1905212402344,514.9701862335205 568.2432250976562,337.8348083496094" style="fill:#ee4f45;stroke:#ee4f45;"></polygon><polygon stroke-linejoin="round" stroke-miterlimit="1" stroke-width="1" points="465.2760009765625,204.38436889648438 490.4815368652344,345.9802551269531 568.2432250976562,337.8348083496094" style="fill:#ed4e45;stroke:#ed4e45;"></polygon><polygon stroke-linejoin="round" stroke-miterlimit="1" stroke-width="1" points="321.43511962890625,185.99856567382812 490.4815368652344,345.9802551269531 465.2760009765625,204.38436889648438" style="fill:#c13745;stroke:#c13745;"></polygon><polygon stroke-linejoin="round" stroke-miterlimit="1" stroke-width="1" points="665.0034484863281,37.733123779296875 321.43511962890625,185.99856567382812 465.2760009765625,204.38436889648438" style="fill:#c63945;stroke:#c63945;"></polygon><polygon stroke-linejoin="round" stroke-miterlimit="1" stroke-width="1" points="363.86968994140625,54.409698486328125 321.43511962890625,185.99856567382812 665.0034484863281,37.733123779296875" style="fill:#c73a45;stroke:#c73a45;"></polygon><polygon stroke-linejoin="round" stroke-miterlimit="1" stroke-width="1" points="459.20849609375,-112.268310546875 363.86968994140625,54.409698486328125 665.0034484863281,37.733123779296875" style="fill:#bf3645;stroke:#bf3645;"></polygon><polygon stroke-linejoin="round" stroke-miterlimit="1" stroke-width="1" points="351.9515380859375,-107.20166015625 363.86968994140625,54.409698486328125 459.20849609375,-112.268310546875" style="fill:#a32745;stroke:#a32745;"></polygon><polygon stroke-linejoin="round" stroke-miterlimit="1" stroke-width="1" points="318.5523681640625,964.7707824707031 303.24652099609375,1113.758056640625 519.3145141601562,1113.6061401367188" style="fill:#861745;stroke:#861745;"></polygon><polygon stroke-linejoin="round" stroke-miterlimit="1" stroke-width="1" points="248.74005126953125,955.5172424316406 303.24652099609375,1113.758056640625 318.5523681640625,964.7707824707031" style="fill:#9d2445;stroke:#9d2445;"></polygon><polygon stroke-linejoin="round" stroke-miterlimit="1" stroke-width="1" points="485.911376953125,814.9087219238281 248.74005126953125,955.5172424316406 318.5523681640625,964.7707824707031" style="fill:#8c1a45;stroke:#8c1a45;"></polygon><polygon stroke-linejoin="round" stroke-miterlimit="1" stroke-width="1" points="327.783447265625,785.0983581542969 248.74005126953125,955.5172424316406 485.911376953125,814.9087219238281" style="fill:#972045;stroke:#972045;"></polygon><polygon stroke-linejoin="round" stroke-miterlimit="1" stroke-width="1" points="502.70562744140625,656.4794921875 327.783447265625,785.0983581542969 485.911376953125,814.9087219238281" style="fill:#ab2b45;stroke:#ab2b45;"></polygon><polygon stroke-linejoin="round" stroke-miterlimit="1" stroke-width="1" points="164.19354248046875,664.8488006591797 327.783447265625,785.0983581542969 502.70562744140625,656.4794921875" style="fill:#a42845;stroke:#a42845;"></polygon><polygon stroke-linejoin="round" stroke-miterlimit="1" stroke-width="1" points="506.1905212402344,514.9701862335205 164.19354248046875,664.8488006591797 502.70562744140625,656.4794921875" style="fill:#aa2a45;stroke:#aa2a45;"></polygon><polygon stroke-linejoin="round" stroke-miterlimit="1" stroke-width="1" points="273.4296875,498.5235992670059 164.19354248046875,664.8488006591797 506.1905212402344,514.9701862335205" style="fill:#a32745;stroke:#a32745;"></polygon><polygon stroke-linejoin="round" stroke-miterlimit="1" stroke-width="1" points="490.4815368652344,345.9802551269531 273.4296875,498.5235992670059 506.1905212402344,514.9701862335205" style="fill:#a92a45;stroke:#a92a45;"></polygon><polygon stroke-linejoin="round" stroke-miterlimit="1" stroke-width="1" points="163.3079833984375,342.84429931640625 273.4296875,498.5235992670059 490.4815368652344,345.9802551269531" style="fill:#a62945;stroke:#a62945;"></polygon><polygon stroke-linejoin="round" stroke-miterlimit="1" stroke-width="1" points="321.43511962890625,185.99856567382812 163.3079833984375,342.84429931640625 490.4815368652344,345.9802551269531" style="fill:#a92a45;stroke:#a92a45;"></polygon><polygon stroke-linejoin="round" stroke-miterlimit="1" stroke-width="1" points="264.42425537109375,214.78656005859375 163.3079833984375,342.84429931640625 321.43511962890625,185.99856567382812" style="fill:#630545;stroke:#630545;"></polygon><polygon stroke-linejoin="round" stroke-miterlimit="1" stroke-width="1" points="363.86968994140625,54.409698486328125 264.42425537109375,214.78656005859375 321.43511962890625,185.99856567382812" style="fill:#720d45;stroke:#720d45;"></polygon><polygon stroke-linejoin="round" stroke-miterlimit="1" stroke-width="1" points="130.3328857421875,36.813568115234375 264.42425537109375,214.78656005859375 363.86968994140625,54.409698486328125" style="fill:#a32745;stroke:#a32745;"></polygon><polygon stroke-linejoin="round" stroke-miterlimit="1" stroke-width="1" points="351.9515380859375,-107.20166015625 130.3328857421875,36.813568115234375 363.86968994140625,54.409698486328125" style="fill:#9b2245;stroke:#9b2245;"></polygon><polygon stroke-linejoin="round" stroke-miterlimit="1" stroke-width="1" points="210.12677001953125,-86.80401611328125 130.3328857421875,36.813568115234375 351.9515380859375,-107.20166015625" style="fill:#b53045;stroke:#b53045;"></polygon><polygon stroke-linejoin="round" stroke-miterlimit="1" stroke-width="1" points="248.74005126953125,955.5172424316406 23.9371337890625,1095.219482421875 303.24652099609375,1113.758056640625" style="fill:#851745;stroke:#851745;"></polygon><polygon stroke-linejoin="round" stroke-miterlimit="1" stroke-width="1" points="153.456298828125,940.6784057617188 23.9371337890625,1095.219482421875 248.74005126953125,955.5172424316406" style="fill:#831645;stroke:#831645;"></polygon><polygon stroke-linejoin="round" stroke-miterlimit="1" stroke-width="1" points="327.783447265625,785.0983581542969 153.456298828125,940.6784057617188 248.74005126953125,955.5172424316406" style="fill:#952045;stroke:#952045;"></polygon><polygon stroke-linejoin="round" stroke-miterlimit="1" stroke-width="1" points="-9.08154296875,812.5478515625 153.456298828125,940.6784057617188 327.783447265625,785.0983581542969" style="fill:#911d45;stroke:#911d45;"></polygon><polygon stroke-linejoin="round" stroke-miterlimit="1" stroke-width="1" points="164.19354248046875,664.8488006591797 -9.08154296875,812.5478515625 327.783447265625,785.0983581542969" style="fill:#992145;stroke:#992145;"></polygon><polygon stroke-linejoin="round" stroke-miterlimit="1" stroke-width="1" points="13.190185546875,637.1724243164062 -9.08154296875,812.5478515625 164.19354248046875,664.8488006591797" style="fill:#931f45;stroke:#931f45;"></polygon><polygon stroke-linejoin="round" stroke-miterlimit="1" stroke-width="1" points="273.4296875,498.5235992670059 13.190185546875,637.1724243164062 164.19354248046875,664.8488006591797" style="fill:#a12645;stroke:#a12645;"></polygon><polygon stroke-linejoin="round" stroke-miterlimit="1" stroke-width="1" points="74.59375,487.57795810699463 13.190185546875,637.1724243164062 273.4296875,498.5235992670059" style="fill:#a82945;stroke:#a82945;"></polygon><polygon stroke-linejoin="round" stroke-miterlimit="1" stroke-width="1" points="163.3079833984375,342.84429931640625 74.59375,487.57795810699463 273.4296875,498.5235992670059" style="fill:#b22f45;stroke:#b22f45;"></polygon><polygon stroke-linejoin="round" stroke-miterlimit="1" stroke-width="1" points="-12.1455078125,342.23236083984375 74.59375,487.57795810699463 163.3079833984375,342.84429931640625" style="fill:#982145;stroke:#982145;"></polygon><polygon stroke-linejoin="round" stroke-miterlimit="1" stroke-width="1" points="264.42425537109375,214.78656005859375 -12.1455078125,342.23236083984375 163.3079833984375,342.84429931640625" style="fill:#9d2345;stroke:#9d2345;"></polygon><polygon stroke-linejoin="round" stroke-miterlimit="1" stroke-width="1" points="210.14044189453125,185.13607788085938 -12.1455078125,342.23236083984375 264.42425537109375,214.78656005859375" style="fill:#a12645;stroke:#a12645;"></polygon><polygon stroke-linejoin="round" stroke-miterlimit="1" stroke-width="1" points="130.3328857421875,36.813568115234375 210.14044189453125,185.13607788085938 264.42425537109375,214.78656005859375" style="fill:#a62845;stroke:#a62845;"></polygon><polygon stroke-linejoin="round" stroke-miterlimit="1" stroke-width="1" points="86.4620361328125,58.375457763671875 210.14044189453125,185.13607788085938 130.3328857421875,36.813568115234375" style="fill:#680745;stroke:#680745;"></polygon><polygon stroke-linejoin="round" stroke-miterlimit="1" stroke-width="1" points="210.12677001953125,-86.80401611328125 86.4620361328125,58.375457763671875 130.3328857421875,36.813568115234375" style="fill:#5b0045;stroke:#5b0045;"></polygon><polygon stroke-linejoin="round" stroke-miterlimit="1" stroke-width="1" points="40.53021240234375,-87.57647705078125 86.4620361328125,58.375457763671875 210.12677001953125,-86.80401611328125" style="fill:#831645;stroke:#831645;"></polygon><polygon stroke-linejoin="round" stroke-miterlimit="1" stroke-width="1" points="153.456298828125,940.6784057617188 -146.3350830078125,1105.2819213867188 23.9371337890625,1095.219482421875" style="fill:#831645;stroke:#831645;"></polygon><polygon stroke-linejoin="round" stroke-miterlimit="1" stroke-width="1" points="-73.48828125,963.644287109375 -146.3350830078125,1105.2819213867188 153.456298828125,940.6784057617188" style="fill:#8b1a45;stroke:#8b1a45;"></polygon><polygon stroke-linejoin="round" stroke-miterlimit="1" stroke-width="1" points="-9.08154296875,812.5478515625 -73.48828125,963.644287109375 153.456298828125,940.6784057617188" style="fill:#7d1345;stroke:#7d1345;"></polygon><polygon stroke-linejoin="round" stroke-miterlimit="1" stroke-width="1" points="-156.3846435546875,789.8280944824219 -73.48828125,963.644287109375 -9.08154296875,812.5478515625" style="fill:#730d45;stroke:#730d45;"></polygon><polygon stroke-linejoin="round" stroke-miterlimit="1" stroke-width="1" points="13.190185546875,637.1724243164062 -156.3846435546875,789.8280944824219 -9.08154296875,812.5478515625" style="fill:#811545;stroke:#811545;"></polygon><polygon stroke-linejoin="round" stroke-miterlimit="1" stroke-width="1" points="63.8447265625,641.8770141601562 -156.3846435546875,789.8280944824219 13.190185546875,637.1724243164062" style="fill:#5b0045;stroke:#5b0045;"></polygon><polygon stroke-linejoin="round" stroke-miterlimit="1" stroke-width="1" points="74.59375,487.57795810699463 63.8447265625,641.8770141601562 13.190185546875,637.1724243164062" style="fill:#5b0045;stroke:#5b0045;"></polygon><polygon stroke-linejoin="round" stroke-miterlimit="1" stroke-width="1" points="-39.6207275390625,496.29197883605957 63.8447265625,641.8770141601562 74.59375,487.57795810699463" style="fill:#730d45;stroke:#730d45;"></polygon><polygon stroke-linejoin="round" stroke-miterlimit="1" stroke-width="1" points="-12.1455078125,342.23236083984375 -39.6207275390625,496.29197883605957 74.59375,487.57795810699463" style="fill:#720d45;stroke:#720d45;"></polygon><polygon stroke-linejoin="round" stroke-miterlimit="1" stroke-width="1" points="-19.65911865234375,335.3186340332031 -39.6207275390625,496.29197883605957 -12.1455078125,342.23236083984375" style="fill:#620445;stroke:#620445;"></polygon><polygon stroke-linejoin="round" stroke-miterlimit="1" stroke-width="1" points="210.14044189453125,185.13607788085938 -19.65911865234375,335.3186340332031 -12.1455078125,342.23236083984375" style="fill:#7d1245;stroke:#7d1245;"></polygon><polygon stroke-linejoin="round" stroke-miterlimit="1" stroke-width="1" points="-138.7376708984375,185.348388671875 -19.65911865234375,335.3186340332031 210.14044189453125,185.13607788085938" style="fill:#9c2345;stroke:#9c2345;"></polygon><polygon stroke-linejoin="round" stroke-miterlimit="1" stroke-width="1" points="86.4620361328125,58.375457763671875 -138.7376708984375,185.348388671875 210.14044189453125,185.13607788085938" style="fill:#962045;stroke:#962045;"></polygon><polygon stroke-linejoin="round" stroke-miterlimit="1" stroke-width="1" points="-16.92645263671875,35.37359619140625 -138.7376708984375,185.348388671875 86.4620361328125,58.375457763671875" style="fill:#a82a45;stroke:#a82a45;"></polygon><polygon stroke-linejoin="round" stroke-miterlimit="1" stroke-width="1" points="40.53021240234375,-87.57647705078125 -16.92645263671875,35.37359619140625 86.4620361328125,58.375457763671875" style="fill:#aa2a45;stroke:#aa2a45;"></polygon><polygon stroke-linejoin="round" stroke-miterlimit="1" stroke-width="1" points="-10.3863525390625,-95.8280029296875 -16.92645263671875,35.37359619140625 40.53021240234375,-87.57647705078125" style="fill:#750e45;stroke:#750e45;"></polygon><polygon stroke-linejoin="round" stroke-miterlimit="1" stroke-width="1" points="-73.48828125,963.644287109375 -311.4652099609375,1112.205322265625 -146.3350830078125,1105.2819213867188" style="fill:#891945;stroke:#891945;"></polygon><polygon stroke-linejoin="round" stroke-miterlimit="1" stroke-width="1" points="-192.323974609375,935.1108093261719 -311.4652099609375,1112.205322265625 -73.48828125,963.644287109375" style="fill:#891945;stroke:#891945;"></polygon><polygon stroke-linejoin="round" stroke-miterlimit="1" stroke-width="1" points="-156.3846435546875,789.8280944824219 -192.323974609375,935.1108093261719 -73.48828125,963.644287109375" style="fill:#6c0a45;stroke:#6c0a45;"></polygon><polygon stroke-linejoin="round" stroke-miterlimit="1" stroke-width="1" points="-80.5989990234375,792.5033569335938 -192.323974609375,935.1108093261719 -156.3846435546875,789.8280944824219" style="fill:#5b0045;stroke:#5b0045;"></polygon><polygon stroke-linejoin="round" stroke-miterlimit="1" stroke-width="1" points="63.8447265625,641.8770141601562 -80.5989990234375,792.5033569335938 -156.3846435546875,789.8280944824219" style="fill:#5b0045;stroke:#5b0045;"></polygon><polygon stroke-linejoin="round" stroke-miterlimit="1" stroke-width="1" points="-80.7235107421875,664.46142578125 -80.5989990234375,792.5033569335938 63.8447265625,641.8770141601562" style="fill:#7c1245;stroke:#7c1245;"></polygon><polygon stroke-linejoin="round" stroke-miterlimit="1" stroke-width="1" points="-39.6207275390625,496.29197883605957 -80.7235107421875,664.46142578125 63.8447265625,641.8770141601562" style="fill:#821545;stroke:#821545;"></polygon><polygon stroke-linejoin="round" stroke-miterlimit="1" stroke-width="1" points="-88.295654296875,513.6018648147583 -80.7235107421875,664.46142578125 -39.6207275390625,496.29197883605957" style="fill:#f45245;stroke:#f45245;"></polygon><polygon stroke-linejoin="round" stroke-miterlimit="1" stroke-width="1" points="-19.65911865234375,335.3186340332031 -88.295654296875,513.6018648147583 -39.6207275390625,496.29197883605957" style="fill:#fa5545;stroke:#fa5545;"></polygon><polygon stroke-linejoin="round" stroke-miterlimit="1" stroke-width="1" points="-246.1275634765625,344.9026641845703 -88.295654296875,513.6018648147583 -19.65911865234375,335.3186340332031" style="fill:#9f2445;stroke:#9f2445;"></polygon><polygon stroke-linejoin="round" stroke-miterlimit="1" stroke-width="1" points="-138.7376708984375,185.348388671875 -246.1275634765625,344.9026641845703 -19.65911865234375,335.3186340332031" style="fill:#9f2445;stroke:#9f2445;"></polygon><polygon stroke-linejoin="round" stroke-miterlimit="1" stroke-width="1" points="-212.2774658203125,212.75881958007812 -246.1275634765625,344.9026641845703 -138.7376708984375,185.348388671875" style="fill:#5b0045;stroke:#5b0045;"></polygon><polygon stroke-linejoin="round" stroke-miterlimit="1" stroke-width="1" points="-16.92645263671875,35.37359619140625 -212.2774658203125,212.75881958007812 -138.7376708984375,185.348388671875" style="fill:#5b0045;stroke:#5b0045;"></polygon><polygon stroke-linejoin="round" stroke-miterlimit="1" stroke-width="1" points="-99.4024658203125,35.5599365234375 -212.2774658203125,212.75881958007812 -16.92645263671875,35.37359619140625" style="fill:#a62845;stroke:#a62845;"></polygon><polygon stroke-linejoin="round" stroke-miterlimit="1" stroke-width="1" points="-10.3863525390625,-95.8280029296875 -99.4024658203125,35.5599365234375 -16.92645263671875,35.37359619140625" style="fill:#992145;stroke:#992145;"></polygon><polygon stroke-linejoin="round" stroke-miterlimit="1" stroke-width="1" points="-291.576171875,-102.4013671875 -99.4024658203125,35.5599365234375 -10.3863525390625,-95.8280029296875" style="fill:#831545;stroke:#831545;"></polygon></svg>